M48
;Layer_Color=9474304
;FILE_FORMAT=4:4
METRIC,LZ
;TYPE=PLATED
T1F00S00C0.3048
T2F00S00C0.7600
T3F00S00C0.7620
T4F00S00C0.8890
T5F00S00C1.0160
T6F00S00C1.6000
T7F00S00C3.2000
T8F00S00C3.2500
%
T01
X00417576Y00383286
X0041783Y00390398
X00425958
X00425704Y00383286
X00433324Y00383032
X00433578Y00390144
X00441706
X00441452Y00383032
X00496062Y00384556
X00496316Y00394208
X004953Y00375158
X00604266Y00364744
Y00394208
X006604Y00384048
X00668528
X00676148Y00383794
X00675894Y0037592
Y00368554
Y00361188
X0067564Y00354076
X0066802Y0035433
X00668274Y00361442
Y00368808
Y00376174
X00660146
Y00368808
Y00361442
X00659892Y0035433
X00683768Y00354076
X00684022Y00361188
Y00368554
Y0037592
X00684276Y00383794
X00745998Y00374142
Y00362712
X00758698
Y00374142
X00773938
Y00362712
X00786638
Y00374142
X00650494Y00328168
X00631952Y00320802
X00828548Y00656336
X00828802Y00663448
Y00670814
Y0067818
X0083693
Y00670814
Y00663448
X00836676Y00656336
X00844296Y00656082
X0084455Y00663194
Y0067056
Y00677926
X00844804Y006858
X00837184Y00686054
X00829056
X00828802Y00694182
X00829056Y00701294
Y0070866
Y00716026
X00837184
Y0070866
Y00701294
X0083693Y00694182
X0084455Y00693928
X00844804Y0070104
Y00708406
Y00715772
X00845058Y00723646
X00837438Y007239
X0082931
X00853186Y00723646
X00852932Y00715772
Y00708406
Y0070104
X00852678Y00693928
X00852932Y006858
X00852678Y00677926
Y0067056
Y00663194
X00852424Y00656082
X00756158Y00646684
Y0064008
Y00633476
X00729488Y00641858
X00722884
Y00648716
X00729488
X00736092
Y00655574
X00729488
X00722884
X00742696
X00760984Y00670814
X00730758Y0061595
X00670052Y00633984
Y00640588
X00663702
Y00634238
X00657352
Y00640588
X0064262Y00599948
X00634492
X00626872Y00600202
X00626618Y00592328
Y00584962
Y00577596
X00626364Y00570484
X00633984Y0057023
X00634238Y00577342
Y00584708
Y00592074
X00642366
Y00584708
Y00577342
X00642112Y0057023
X00618236Y00570484
X0061849Y00577596
Y00584962
Y00592328
X00618744Y00600202
X00672686Y0056404
X00696722Y00534162
X00695706Y00525272
X0069596Y00514604
Y0049784
X00697738Y00408432
X00706628
X00716788
X00723138
X00622808Y00425958
X00623062Y0043307
Y00440436
Y00447802
X00614934
Y00440436
Y0043307
X0061468Y00425958
X0060706Y00426212
X00607314Y00433324
Y0044069
Y00448056
X00607568Y0045593
X00615188Y00455676
X00623316
X0059944Y0045593
X00599186Y00448056
Y0044069
Y00433324
X00598932Y00426212
X00512318Y00446024
X00512572Y00453136
Y00460502
Y00467868
X00504444
Y00460502
Y00453136
X0050419Y00446024
X0049657Y00446278
X00496824Y0045339
Y00460756
Y00468122
X00497078Y00475996
X00504698Y00475742
X00512826
X00512572Y00484124
X00512826Y00491236
Y00498602
Y00505968
X00504698
Y00498602
Y00491236
X00504444Y00484124
X00496824Y00484378
X00497078Y0049149
Y00498856
Y00506222
X00497332Y00514096
X00504952Y00513842
X0051308
X00489204Y00514096
X0048895Y00506222
Y00498856
Y0049149
X00488696Y00484378
X0048895Y00475996
X00488696Y00468122
Y00460756
Y0045339
X00488442Y00446278
X0044196Y0041275
X00433832
X00426212Y00413004
X00425958Y0040513
Y00397764
X00433578Y0039751
Y00404876
X00441706
Y0039751
X0041783Y00397764
Y0040513
X00418084Y00413004
X00450342Y00564642
X0041275Y006096
X00502158Y0063373
X00510032
X00517906Y00633476
X0052578Y0063373
X0053467Y00633476
X00559816Y00542798
X00574802Y00776224
X00575056Y00783336
Y00790702
X00583184
Y00783336
X0058293Y00776224
X0059055Y0077597
X00590804Y00783082
Y00790448
X00598932
Y00783082
X00598678Y0077597
X00471932
X00472186Y00783082
Y00790448
X00464058
Y00783082
X00463804Y0077597
X00456184Y00776224
X00456438Y00783336
Y00790702
X0044831
Y00783336
X00448056Y00776224
X00357632Y00772922
X00357886Y00780034
Y007874
X00349758
Y00780034
X00349504Y00772922
X00341884Y00773176
X00342138Y00780288
Y00787654
X0033401
Y00780288
X00333756Y00773176
X00297434Y00736854
X0029718Y0072898
Y00721614
Y00714248
X00296926Y00707136
X00288798
X00289052Y00714248
Y00721614
Y0072898
X00281432Y00729234
Y00721868
Y00714502
X00281178Y0070739
X0027305
X00273304Y00714502
Y00721868
Y00729234
X00273558Y00737108
X00281686
X00289306Y00736854
X00288544Y00698754
X00280924Y00699008
X0028067Y00691134
Y00683768
Y00676402
X00280416Y0066929
X00288036Y00669036
X0028829Y00676148
Y00683514
Y0069088
X00296418
Y00683514
Y00676148
X00296164Y00669036
X00272288Y0066929
X00272542Y00676402
Y00683768
Y00691134
X00272796Y00699008
X00296672Y00698754
X00373633Y00610361
X00357886Y00794766
X00349758
X00342138Y0079502
X00342392Y00802894
X00350012Y0080264
X0035814
X00334264Y00802894
X0033401Y0079502
X0044831Y00798068
X00456438
X00464058Y00797814
X00464312Y00805688
X00456692Y00805942
X00448564
X0047244Y00805688
X00472186Y00797814
X00575056Y00798068
X00583184
X00590804Y00797814
X00591058Y00805688
X00583438Y00805942
X0057531
X00599186Y00805688
X00598932Y00797814
T02
X00418092Y0065708
X00405392Y0068248
X00500896
X00526296
X00551696
X00564396Y0065708
X00538996
X00513596
X00392692
X00367292
X00379992Y0068248
X00354592
T03
X00693928Y0064389
X00706628
T04
X00628396Y0079502
X00653796
T05
X00341376Y00279908
Y00305308
X00366776
X00392176
Y00279908
X00366776
X00284226Y00364236
Y00389636
X00417576Y00305308
X00442976
X00468376
X00493776
X00519176
X00544576
X00569976
X00595376
X00620776
X00646176
X00671576
X00696976
X00722376
X00747776
X00773176
Y00279908
X00747776
X00722376
X00696976
X00671576
X00646176
X00620776
X00595376
X00569976
X00544576
X00519176
X00493776
X00468376
X00442976
X00417576
X00798576
Y00305308
X00823976
Y00279908
X00284226Y00415036
Y00440436
Y00465836
Y00491236
Y00516636
Y00542036
Y00567436
Y00592836
T06
X00803148Y0066559
Y00715882
T07
X002921Y002921
X008721Y007821
X002921
T08
X00437092Y0074598
X00481796
X00583396
X00335492
M30
