G04*
G04 #@! TF.GenerationSoftware,Altium Limited,Altium Designer,18.0.12 (696)*
G04*
G04 Layer_Color=8388736*
%FSLAX44Y44*%
%MOMM*%
G71*
G01*
G75*
G04:AMPARAMS|DCode=38|XSize=2.9032mm|YSize=1.3532mm|CornerRadius=0.3891mm|HoleSize=0mm|Usage=FLASHONLY|Rotation=0.000|XOffset=0mm|YOffset=0mm|HoleType=Round|Shape=RoundedRectangle|*
%AMROUNDEDRECTD38*
21,1,2.9032,0.5750,0,0,0.0*
21,1,2.1250,1.3532,0,0,0.0*
1,1,0.7782,1.0625,-0.2875*
1,1,0.7782,-1.0625,-0.2875*
1,1,0.7782,-1.0625,0.2875*
1,1,0.7782,1.0625,0.2875*
%
%ADD38ROUNDEDRECTD38*%
%ADD39R,3.7032X2.3532*%
%ADD40R,1.3032X2.3532*%
%ADD41R,1.3032X2.3532*%
%ADD42O,2.4032X0.8032*%
%ADD43O,2.0532X0.8032*%
G04:AMPARAMS|DCode=44|XSize=1.4732mm|YSize=1.1532mm|CornerRadius=0.2441mm|HoleSize=0mm|Usage=FLASHONLY|Rotation=0.000|XOffset=0mm|YOffset=0mm|HoleType=Round|Shape=RoundedRectangle|*
%AMROUNDEDRECTD44*
21,1,1.4732,0.6650,0,0,0.0*
21,1,0.9850,1.1532,0,0,0.0*
1,1,0.4882,0.4925,-0.3325*
1,1,0.4882,-0.4925,-0.3325*
1,1,0.4882,-0.4925,0.3325*
1,1,0.4882,0.4925,0.3325*
%
%ADD44ROUNDEDRECTD44*%
%ADD45R,2.2352X5.6642*%
%ADD46R,2.2352X5.5372*%
G04:AMPARAMS|DCode=47|XSize=1.6032mm|YSize=1.2032mm|CornerRadius=0.3516mm|HoleSize=0mm|Usage=FLASHONLY|Rotation=270.000|XOffset=0mm|YOffset=0mm|HoleType=Round|Shape=RoundedRectangle|*
%AMROUNDEDRECTD47*
21,1,1.6032,0.5000,0,0,270.0*
21,1,0.9000,1.2032,0,0,270.0*
1,1,0.7032,-0.2500,-0.4500*
1,1,0.7032,-0.2500,0.4500*
1,1,0.7032,0.2500,0.4500*
1,1,0.7032,0.2500,-0.4500*
%
%ADD47ROUNDEDRECTD47*%
G04:AMPARAMS|DCode=48|XSize=1.6032mm|YSize=1.2032mm|CornerRadius=0.3516mm|HoleSize=0mm|Usage=FLASHONLY|Rotation=180.000|XOffset=0mm|YOffset=0mm|HoleType=Round|Shape=RoundedRectangle|*
%AMROUNDEDRECTD48*
21,1,1.6032,0.5000,0,0,180.0*
21,1,0.9000,1.2032,0,0,180.0*
1,1,0.7032,-0.4500,0.2500*
1,1,0.7032,0.4500,0.2500*
1,1,0.7032,0.4500,-0.2500*
1,1,0.7032,-0.4500,-0.2500*
%
%ADD48ROUNDEDRECTD48*%
G04:AMPARAMS|DCode=49|XSize=12.2032mm|YSize=4.2032mm|CornerRadius=1.1016mm|HoleSize=0mm|Usage=FLASHONLY|Rotation=0.000|XOffset=0mm|YOffset=0mm|HoleType=Round|Shape=RoundedRectangle|*
%AMROUNDEDRECTD49*
21,1,12.2032,2.0000,0,0,0.0*
21,1,10.0000,4.2032,0,0,0.0*
1,1,2.2032,5.0000,-1.0000*
1,1,2.2032,-5.0000,-1.0000*
1,1,2.2032,-5.0000,1.0000*
1,1,2.2032,5.0000,1.0000*
%
%ADD49ROUNDEDRECTD49*%
%ADD50R,12.2032X2.1082*%
%ADD51O,0.8032X1.6532*%
G04:AMPARAMS|DCode=52|XSize=2.4032mm|YSize=1.7532mm|CornerRadius=0.4891mm|HoleSize=0mm|Usage=FLASHONLY|Rotation=0.000|XOffset=0mm|YOffset=0mm|HoleType=Round|Shape=RoundedRectangle|*
%AMROUNDEDRECTD52*
21,1,2.4032,0.7750,0,0,0.0*
21,1,1.4250,1.7532,0,0,0.0*
1,1,0.9782,0.7125,-0.3875*
1,1,0.9782,-0.7125,-0.3875*
1,1,0.9782,-0.7125,0.3875*
1,1,0.9782,0.7125,0.3875*
%
%ADD52ROUNDEDRECTD52*%
G04:AMPARAMS|DCode=53|XSize=2.9032mm|YSize=1.3532mm|CornerRadius=0.3891mm|HoleSize=0mm|Usage=FLASHONLY|Rotation=270.000|XOffset=0mm|YOffset=0mm|HoleType=Round|Shape=RoundedRectangle|*
%AMROUNDEDRECTD53*
21,1,2.9032,0.5750,0,0,270.0*
21,1,2.1250,1.3532,0,0,270.0*
1,1,0.7782,-0.2875,-1.0625*
1,1,0.7782,-0.2875,1.0625*
1,1,0.7782,0.2875,1.0625*
1,1,0.7782,0.2875,-1.0625*
%
%ADD53ROUNDEDRECTD53*%
G04:AMPARAMS|DCode=54|XSize=1.1032mm|YSize=1.1032mm|CornerRadius=0.2366mm|HoleSize=0mm|Usage=FLASHONLY|Rotation=90.000|XOffset=0mm|YOffset=0mm|HoleType=Round|Shape=RoundedRectangle|*
%AMROUNDEDRECTD54*
21,1,1.1032,0.6300,0,0,90.0*
21,1,0.6300,1.1032,0,0,90.0*
1,1,0.4732,0.3150,0.3150*
1,1,0.4732,0.3150,-0.3150*
1,1,0.4732,-0.3150,-0.3150*
1,1,0.4732,-0.3150,0.3150*
%
%ADD54ROUNDEDRECTD54*%
G04:AMPARAMS|DCode=55|XSize=1.1032mm|YSize=1.1032mm|CornerRadius=0.2366mm|HoleSize=0mm|Usage=FLASHONLY|Rotation=180.000|XOffset=0mm|YOffset=0mm|HoleType=Round|Shape=RoundedRectangle|*
%AMROUNDEDRECTD55*
21,1,1.1032,0.6300,0,0,180.0*
21,1,0.6300,1.1032,0,0,180.0*
1,1,0.4732,-0.3150,0.3150*
1,1,0.4732,0.3150,0.3150*
1,1,0.4732,0.3150,-0.3150*
1,1,0.4732,-0.3150,-0.3150*
%
%ADD55ROUNDEDRECTD55*%
G04:AMPARAMS|DCode=56|XSize=1.4732mm|YSize=1.1532mm|CornerRadius=0.2441mm|HoleSize=0mm|Usage=FLASHONLY|Rotation=270.000|XOffset=0mm|YOffset=0mm|HoleType=Round|Shape=RoundedRectangle|*
%AMROUNDEDRECTD56*
21,1,1.4732,0.6650,0,0,270.0*
21,1,0.9850,1.1532,0,0,270.0*
1,1,0.4882,-0.3325,-0.4925*
1,1,0.4882,-0.3325,0.4925*
1,1,0.4882,0.3325,0.4925*
1,1,0.4882,0.3325,-0.4925*
%
%ADD56ROUNDEDRECTD56*%
G04:AMPARAMS|DCode=57|XSize=2.4032mm|YSize=1.7532mm|CornerRadius=0.4891mm|HoleSize=0mm|Usage=FLASHONLY|Rotation=90.000|XOffset=0mm|YOffset=0mm|HoleType=Round|Shape=RoundedRectangle|*
%AMROUNDEDRECTD57*
21,1,2.4032,0.7750,0,0,90.0*
21,1,1.4250,1.7532,0,0,90.0*
1,1,0.9782,0.3875,0.7125*
1,1,0.9782,0.3875,-0.7125*
1,1,0.9782,-0.3875,-0.7125*
1,1,0.9782,-0.3875,0.7125*
%
%ADD57ROUNDEDRECTD57*%
%ADD58C,1.7272*%
%ADD59C,0.2032*%
%ADD60R,2.7432X2.7432*%
%ADD61R,3.3032X2.6032*%
%ADD62O,1.6002X1.9812*%
%ADD63R,1.7032X1.7032*%
%ADD64R,1.8542X1.8542*%
%ADD65C,1.8542*%
%ADD66R,1.8542X1.8542*%
%ADD67C,5.2032*%
%ADD68C,1.4732*%
D38*
X712500Y367522D02*
D03*
Y397522D02*
D03*
D39*
X767588Y339332D02*
D03*
D40*
X744588Y401332D02*
D03*
X790588D02*
D03*
D41*
X767588D02*
D03*
D42*
X520482Y561434D02*
D03*
Y574134D02*
D03*
Y586834D02*
D03*
Y599534D02*
D03*
X472482Y561434D02*
D03*
Y574134D02*
D03*
Y586834D02*
D03*
Y599534D02*
D03*
D43*
X547130Y427736D02*
D03*
Y440436D02*
D03*
Y453136D02*
D03*
Y465836D02*
D03*
Y478536D02*
D03*
Y491236D02*
D03*
Y503936D02*
D03*
Y516636D02*
D03*
Y529336D02*
D03*
X453630Y427736D02*
D03*
Y440436D02*
D03*
Y453136D02*
D03*
Y465836D02*
D03*
Y478536D02*
D03*
Y491236D02*
D03*
Y503936D02*
D03*
Y516636D02*
D03*
Y529336D02*
D03*
D44*
X540512Y619600D02*
D03*
Y599600D02*
D03*
X642112Y634840D02*
D03*
Y614840D02*
D03*
X662432Y619346D02*
D03*
Y599346D02*
D03*
X682244Y578518D02*
D03*
Y598518D02*
D03*
X662432Y583532D02*
D03*
Y563532D02*
D03*
X628904Y750730D02*
D03*
Y770730D02*
D03*
X662178Y651162D02*
D03*
Y671162D02*
D03*
X641604Y651162D02*
D03*
Y671162D02*
D03*
X687324Y689516D02*
D03*
Y709516D02*
D03*
X568960Y517050D02*
D03*
Y537050D02*
D03*
D45*
X380492Y425450D02*
D03*
D46*
Y511810D02*
D03*
D47*
X753982Y803910D02*
D03*
X735982D02*
D03*
X613046Y364490D02*
D03*
X631046D02*
D03*
X613300Y394208D02*
D03*
X631300D02*
D03*
D48*
X412750Y600820D02*
D03*
Y582820D02*
D03*
X373633Y601581D02*
D03*
Y583581D02*
D03*
D49*
X828802Y604012D02*
D03*
Y500634D02*
D03*
D50*
Y516128D02*
D03*
Y589280D02*
D03*
D51*
X681228Y616640D02*
D03*
X693928D02*
D03*
X706628D02*
D03*
X719328D02*
D03*
X681228Y671140D02*
D03*
X693928D02*
D03*
X706628D02*
D03*
X719328D02*
D03*
D52*
X753544Y761746D02*
D03*
X712544D02*
D03*
D53*
X737374Y730474D02*
D03*
X707374D02*
D03*
X765798Y448848D02*
D03*
X795798D02*
D03*
X737374Y697454D02*
D03*
X707374D02*
D03*
D54*
X548012Y545338D02*
D03*
X533012D02*
D03*
X716668Y598170D02*
D03*
X701668D02*
D03*
X716668Y578358D02*
D03*
X701668D02*
D03*
X737482Y671068D02*
D03*
X752482D02*
D03*
D55*
X811784Y378072D02*
D03*
Y393072D02*
D03*
X450596Y589160D02*
D03*
Y574160D02*
D03*
X418592Y495434D02*
D03*
Y480434D02*
D03*
X418846Y442334D02*
D03*
Y457334D02*
D03*
D56*
X718660Y804164D02*
D03*
X698660D02*
D03*
D57*
X745236Y639498D02*
D03*
Y598498D02*
D03*
D58*
X564396Y657080D02*
D03*
X551696Y682480D02*
D03*
X538996Y657080D02*
D03*
X526296Y682480D02*
D03*
X513596Y657080D02*
D03*
X500896Y682480D02*
D03*
X418092Y657080D02*
D03*
X405392Y682480D02*
D03*
X392692Y657080D02*
D03*
X379992Y682480D02*
D03*
X367292Y657080D02*
D03*
X354592Y682480D02*
D03*
D59*
X583396Y745980D02*
D03*
X481796D02*
D03*
X437092D02*
D03*
X335492D02*
D03*
D60*
X803148Y715882D02*
D03*
Y665590D02*
D03*
D61*
X700278Y643890D02*
D03*
D62*
X798576Y305308D02*
D03*
X773176D02*
D03*
X747776D02*
D03*
X722376D02*
D03*
X696976D02*
D03*
X671576D02*
D03*
X646176D02*
D03*
X620776D02*
D03*
X595376D02*
D03*
X569976D02*
D03*
X544576D02*
D03*
X519176D02*
D03*
X493776D02*
D03*
X468376D02*
D03*
X442976D02*
D03*
X366776D02*
D03*
X341376D02*
D03*
X417576D02*
D03*
X392176D02*
D03*
Y279908D02*
D03*
X417576D02*
D03*
X341376D02*
D03*
X366776D02*
D03*
X442976D02*
D03*
X468376D02*
D03*
X493776D02*
D03*
X519176D02*
D03*
X544576D02*
D03*
X569976D02*
D03*
X595376D02*
D03*
X620776D02*
D03*
X646176D02*
D03*
X671576D02*
D03*
X696976D02*
D03*
X722376D02*
D03*
X747776D02*
D03*
X773176D02*
D03*
X798576D02*
D03*
X823976D02*
D03*
D63*
Y305308D02*
D03*
D64*
X653796Y795020D02*
D03*
D65*
X628396D02*
D03*
X284226Y415036D02*
D03*
Y440436D02*
D03*
Y567436D02*
D03*
Y465836D02*
D03*
Y491236D02*
D03*
Y542036D02*
D03*
Y516636D02*
D03*
Y389636D02*
D03*
Y364236D02*
D03*
D66*
Y592836D02*
D03*
D67*
X292100Y292100D02*
D03*
X872100Y782100D02*
D03*
X292100D02*
D03*
D68*
X706628Y643890D02*
D03*
X693928D02*
D03*
M02*
