G04*
G04 #@! TF.GenerationSoftware,Altium Limited,Altium Designer,18.0.12 (696)*
G04*
G04 Layer_Physical_Order=2*
G04 Layer_Color=16711680*
%FSLAX44Y44*%
%MOMM*%
G71*
G01*
G75*
%ADD12C,0.2540*%
G04:AMPARAMS|DCode=24|XSize=1.27mm|YSize=0.95mm|CornerRadius=0.1425mm|HoleSize=0mm|Usage=FLASHONLY|Rotation=0.000|XOffset=0mm|YOffset=0mm|HoleType=Round|Shape=RoundedRectangle|*
%AMROUNDEDRECTD24*
21,1,1.2700,0.6650,0,0,0.0*
21,1,0.9850,0.9500,0,0,0.0*
1,1,0.2850,0.4925,-0.3325*
1,1,0.2850,-0.4925,-0.3325*
1,1,0.2850,-0.4925,0.3325*
1,1,0.2850,0.4925,0.3325*
%
%ADD24ROUNDEDRECTD24*%
G04:AMPARAMS|DCode=36|XSize=1.27mm|YSize=0.95mm|CornerRadius=0.1425mm|HoleSize=0mm|Usage=FLASHONLY|Rotation=270.000|XOffset=0mm|YOffset=0mm|HoleType=Round|Shape=RoundedRectangle|*
%AMROUNDEDRECTD36*
21,1,1.2700,0.6650,0,0,270.0*
21,1,0.9850,0.9500,0,0,270.0*
1,1,0.2850,-0.3325,-0.4925*
1,1,0.2850,-0.3325,0.4925*
1,1,0.2850,0.3325,0.4925*
1,1,0.2850,0.3325,-0.4925*
%
%ADD36ROUNDEDRECTD36*%
%ADD69C,0.5080*%
%ADD70C,1.0160*%
%ADD71C,1.5240*%
%ADD72R,2.5400X2.5400*%
%ADD73R,3.1000X2.4000*%
%ADD74O,1.3970X1.7780*%
%ADD75R,1.5000X1.5000*%
%ADD76R,1.6510X1.6510*%
%ADD77C,1.6510*%
%ADD78R,1.6510X1.6510*%
%ADD79C,5.0000*%
%ADD80C,1.2700*%
%ADD81C,0.6096*%
G36*
X861217Y807401D02*
X859558Y806714D01*
X855862Y804449D01*
X852566Y801634D01*
X849751Y798338D01*
X847486Y794641D01*
X845827Y790637D01*
X844815Y786422D01*
X844475Y782100D01*
X844815Y777778D01*
X845827Y773563D01*
X847486Y769558D01*
X849751Y765862D01*
X852566Y762566D01*
X855862Y759751D01*
X859558Y757486D01*
X863563Y755827D01*
X867778Y754815D01*
X872100Y754475D01*
X876422Y754815D01*
X880637Y755827D01*
X884641Y757486D01*
X888338Y759751D01*
X889508Y760750D01*
X895858Y757934D01*
Y573016D01*
X895411Y572211D01*
X891380Y567925D01*
X676811D01*
X676715Y568069D01*
X674866Y569304D01*
X672686Y569738D01*
X670506Y569304D01*
X668657Y568069D01*
X667422Y566220D01*
X666989Y564040D01*
X667422Y561860D01*
X668657Y560011D01*
X670506Y558776D01*
X672686Y558343D01*
X674866Y558776D01*
X676715Y560011D01*
X676811Y560155D01*
X889771D01*
X895783Y554143D01*
Y287105D01*
X876723Y268045D01*
X841333D01*
X833326Y276051D01*
X833583Y278003D01*
Y281813D01*
X833256Y284300D01*
X832296Y286617D01*
X830769Y288606D01*
X830363Y288918D01*
X832283Y295268D01*
X834016D01*
Y315348D01*
X813936D01*
Y310902D01*
X807856Y309700D01*
X806896Y312017D01*
X805369Y314006D01*
X803380Y315533D01*
X801062Y316493D01*
X798576Y316820D01*
X796089Y316493D01*
X793823Y315554D01*
X764493Y344885D01*
X763233Y345727D01*
X761746Y346023D01*
X409533D01*
X294097Y461459D01*
X294743Y463018D01*
X295114Y465836D01*
X294743Y468654D01*
X293655Y471280D01*
X291925Y473535D01*
X289951Y475050D01*
X289670Y476932D01*
Y480140D01*
X289951Y482022D01*
X291925Y483537D01*
X293655Y485792D01*
X294743Y488418D01*
X295114Y491236D01*
X294743Y494054D01*
X293655Y496680D01*
X291925Y498935D01*
X289951Y500450D01*
X289670Y502332D01*
Y505540D01*
X289951Y507422D01*
X291925Y508937D01*
X293655Y511192D01*
X294743Y513818D01*
X295114Y516636D01*
X294743Y519454D01*
X293655Y522080D01*
X291925Y524335D01*
X289951Y525850D01*
X289670Y527732D01*
Y530940D01*
X289951Y532822D01*
X291925Y534337D01*
X293655Y536592D01*
X294743Y539218D01*
X295114Y542036D01*
X294743Y544854D01*
X293655Y547480D01*
X291925Y549735D01*
X289951Y551250D01*
X289670Y553132D01*
Y556340D01*
X289951Y558222D01*
X291925Y559737D01*
X293655Y561992D01*
X294743Y564618D01*
X295114Y567436D01*
X294743Y570254D01*
X293655Y572880D01*
X291925Y575135D01*
X291201Y575691D01*
X293021Y582041D01*
X295021D01*
Y585236D01*
X301371Y586654D01*
X310028Y577998D01*
X311708Y576875D01*
X313690Y576480D01*
X365794D01*
X365850Y576398D01*
X367161Y575521D01*
X368708Y575214D01*
X378558D01*
X380105Y575521D01*
X381417Y576398D01*
X381472Y576480D01*
X404402D01*
X404966Y575636D01*
X406278Y574760D01*
X407825Y574452D01*
X417675D01*
X419222Y574760D01*
X420534Y575636D01*
X421098Y576480D01*
X431179D01*
X445049Y562610D01*
X445078Y562462D01*
X446302Y560629D01*
X446313Y560613D01*
X446313Y560613D01*
X448162Y559378D01*
X450342Y558945D01*
X452522Y559378D01*
X452522Y559378D01*
X452648Y559463D01*
X559957D01*
X565237Y554182D01*
X565072Y553429D01*
X561996Y548062D01*
X561996Y548062D01*
X559835Y548492D01*
X559816Y548495D01*
X559816Y548495D01*
X557655Y548065D01*
X557636Y548062D01*
X557636Y548062D01*
X555787Y546827D01*
X555787Y546827D01*
X555778Y546813D01*
X554552Y544978D01*
X554552Y544978D01*
X554549Y544961D01*
X554122Y542817D01*
X554118Y542798D01*
Y542798D01*
X554118Y542798D01*
X554122Y542779D01*
X554552Y540618D01*
X555787Y538769D01*
X557636Y537534D01*
X557636Y537534D01*
X557655Y537531D01*
X559816Y537100D01*
X561848Y537505D01*
X679875Y419478D01*
X677445Y413611D01*
X638810D01*
X636828Y413217D01*
X635148Y412094D01*
X627637Y404585D01*
X626515Y402904D01*
X626511Y402888D01*
X626412Y402868D01*
X625100Y401992D01*
X624682Y401366D01*
X621284Y400998D01*
X617886Y401366D01*
X617468Y401992D01*
X616156Y402868D01*
X614609Y403176D01*
X607959D01*
X606412Y402868D01*
X605100Y401992D01*
X604224Y400680D01*
X604062Y399865D01*
X602105Y399476D01*
X602086Y399472D01*
X602085Y399472D01*
X600253Y398247D01*
X600237Y398237D01*
X600237Y398237D01*
X599013Y396404D01*
X599002Y396388D01*
X599002Y396388D01*
X598572Y394227D01*
X598568Y394208D01*
X598571Y394194D01*
X599002Y392028D01*
X599002Y392028D01*
X599011Y392014D01*
X600237Y390179D01*
X600237Y390179D01*
X600251Y390170D01*
X602085Y388944D01*
X602086Y388944D01*
X602103Y388941D01*
X604062Y388551D01*
X604224Y387736D01*
X605100Y386424D01*
X606412Y385548D01*
X607959Y385240D01*
X614609D01*
X616156Y385548D01*
X617467Y386424D01*
X623443Y384917D01*
X625850Y383229D01*
Y375076D01*
X623241Y373266D01*
X617214Y372020D01*
X615902Y372896D01*
X614355Y373204D01*
X607705D01*
X606158Y372896D01*
X604846Y372020D01*
X603970Y370708D01*
X603903Y370369D01*
X602105Y370012D01*
X602086Y370008D01*
X602085Y370008D01*
X600253Y368783D01*
X600237Y368773D01*
X600237Y368773D01*
X599013Y366940D01*
X599002Y366924D01*
X599002Y366924D01*
X598569Y364744D01*
X598568Y364744D01*
X598571Y364730D01*
X599002Y362564D01*
X599002Y362564D01*
X599011Y362550D01*
X600237Y360715D01*
X600237Y360715D01*
X600253Y360704D01*
X602086Y359480D01*
X603692Y359161D01*
X603970Y357764D01*
X604846Y356452D01*
X606158Y355576D01*
X607705Y355268D01*
X614355D01*
X615902Y355576D01*
X617214Y356452D01*
X617632Y357079D01*
X621030Y357446D01*
X624428Y357079D01*
X624846Y356452D01*
X626158Y355576D01*
X627705Y355268D01*
X634355D01*
X635902Y355576D01*
X637214Y356452D01*
X638090Y357764D01*
X638398Y359311D01*
Y369161D01*
X638090Y370708D01*
X637214Y372020D01*
X636209Y372691D01*
Y385584D01*
X637468Y386424D01*
X638344Y387736D01*
X638652Y389283D01*
Y399133D01*
X643666Y403252D01*
X695432D01*
X695542Y403179D01*
X695558Y403168D01*
X695558Y403168D01*
X697738Y402734D01*
X699918Y403168D01*
X702183Y404212D01*
X704448Y403168D01*
X706628Y402734D01*
X708808Y403168D01*
X708808Y403168D01*
X708824Y403179D01*
X710404Y404235D01*
X711353Y402997D01*
X712945Y401776D01*
X714799Y401008D01*
X716788Y400746D01*
X723138D01*
X725127Y401008D01*
X726981Y401776D01*
X728573Y402997D01*
X729794Y404589D01*
X730562Y406443D01*
X730824Y408432D01*
X730562Y410421D01*
X729794Y412275D01*
X728573Y413867D01*
X726981Y415088D01*
X725127Y415856D01*
X724220Y415975D01*
Y450596D01*
X723958Y452585D01*
X723190Y454439D01*
X721969Y456031D01*
X600522Y577478D01*
Y655066D01*
X600260Y657055D01*
X599492Y658909D01*
X598271Y660501D01*
X570857Y687915D01*
X569265Y689136D01*
X567411Y689904D01*
X565422Y690166D01*
X558369D01*
X556820Y691355D01*
X554348Y692378D01*
X552412Y692633D01*
X536031Y709015D01*
X534439Y710236D01*
X532585Y711004D01*
X530596Y711266D01*
X426492D01*
X424503Y711004D01*
X422649Y710236D01*
X421057Y709015D01*
X404676Y692633D01*
X402740Y692378D01*
X400268Y691355D01*
X398146Y689726D01*
X396517Y687604D01*
X395983Y686313D01*
X393173Y685769D01*
X392211D01*
X389401Y686313D01*
X388867Y687604D01*
X387238Y689726D01*
X385116Y691355D01*
X382644Y692378D01*
X379992Y692728D01*
X377340Y692378D01*
X374868Y691355D01*
X372746Y689726D01*
X371117Y687604D01*
X370583Y686313D01*
X367774Y685769D01*
X366811D01*
X364001Y686313D01*
X363467Y687604D01*
X361838Y689726D01*
X359716Y691355D01*
X357244Y692378D01*
X354592Y692728D01*
X351940Y692378D01*
X349468Y691355D01*
X347346Y689726D01*
X345717Y687604D01*
X344693Y685132D01*
X344344Y682480D01*
X344693Y679828D01*
X345717Y677356D01*
X347346Y675234D01*
X349468Y673605D01*
X351940Y672581D01*
X354592Y672232D01*
X357244Y672581D01*
X359716Y673605D01*
X361838Y675234D01*
X363467Y677356D01*
X364001Y678646D01*
X366811Y679191D01*
X367774D01*
X370583Y678646D01*
X371117Y677356D01*
X372746Y675234D01*
X374868Y673605D01*
X377340Y672581D01*
X379992Y672232D01*
X384973Y667875D01*
X385466Y666877D01*
X385446Y664326D01*
X383817Y662204D01*
X382794Y659732D01*
X382444Y657080D01*
X382794Y654428D01*
X383817Y651956D01*
X385446Y649834D01*
X387568Y648205D01*
X390040Y647181D01*
X392692Y646832D01*
X395344Y647181D01*
X397816Y648205D01*
X399938Y649834D01*
X401567Y651956D01*
X402101Y653247D01*
X404911Y653791D01*
X405873D01*
X408683Y653247D01*
X409217Y651956D01*
X410846Y649834D01*
X412968Y648205D01*
X415440Y647181D01*
X418092Y646832D01*
X420744Y647181D01*
X423216Y648205D01*
X425338Y649834D01*
X426967Y651956D01*
X427990Y654428D01*
X428340Y657080D01*
X428080Y659055D01*
X428336Y660214D01*
X431967Y665273D01*
X432183Y665405D01*
X513106D01*
X514593Y665701D01*
X515853Y666543D01*
X522405Y673095D01*
X523644Y672581D01*
X526296Y672232D01*
X528948Y672581D01*
X531420Y673605D01*
X533542Y675234D01*
X535171Y677356D01*
X535698Y678629D01*
X535746Y678654D01*
X538515Y679191D01*
X539478D01*
X542287Y678646D01*
X542821Y677356D01*
X544450Y675234D01*
X546572Y673605D01*
X549044Y672581D01*
X551696Y672232D01*
X554348Y672581D01*
X556820Y673605D01*
X558817Y671892D01*
X559356Y666538D01*
X559272Y665955D01*
X557150Y664326D01*
X555521Y662204D01*
X554987Y660913D01*
X552178Y660369D01*
X551215D01*
X548405Y660913D01*
X547871Y662204D01*
X546242Y664326D01*
X544120Y665955D01*
X541648Y666979D01*
X538996Y667328D01*
X536344Y666979D01*
X533872Y665955D01*
X531750Y664326D01*
X530121Y662204D01*
X529098Y659732D01*
X528748Y657080D01*
X529098Y654428D01*
X530121Y651956D01*
X531750Y649834D01*
X533872Y648205D01*
X536344Y647181D01*
X538996Y646832D01*
X541648Y647181D01*
X544120Y648205D01*
X546242Y649834D01*
X547871Y651956D01*
X548405Y653247D01*
X551215Y653791D01*
X552178D01*
X554987Y653247D01*
X555521Y651956D01*
X557150Y649834D01*
X559272Y648205D01*
X561744Y647181D01*
X564396Y646832D01*
X567048Y647181D01*
X569520Y648205D01*
X571642Y649834D01*
X573271Y651956D01*
X574295Y654428D01*
X580921Y656112D01*
X585150Y651882D01*
Y574294D01*
X585412Y572305D01*
X586180Y570451D01*
X587401Y568859D01*
X708848Y447412D01*
Y433517D01*
X702982Y431087D01*
X565765Y568304D01*
X564084Y569427D01*
X562102Y569822D01*
X452648D01*
X452522Y569906D01*
X452374Y569935D01*
X436987Y585322D01*
X435306Y586445D01*
X433324Y586839D01*
X423406D01*
X421573Y589568D01*
X420534Y595636D01*
X421410Y596948D01*
X421718Y598495D01*
Y605145D01*
X421410Y606692D01*
X420534Y608004D01*
X419222Y608880D01*
X418884Y608947D01*
X418447Y609600D01*
X418014Y611780D01*
X416779Y613629D01*
X414930Y614864D01*
X412750Y615298D01*
X410570Y614864D01*
X408721Y613629D01*
X407486Y611780D01*
X407052Y609600D01*
X406616Y608947D01*
X406278Y608880D01*
X404966Y608004D01*
X404090Y606692D01*
X403782Y605145D01*
Y598495D01*
X404090Y596948D01*
X404966Y595636D01*
X403927Y589568D01*
X402094Y586839D01*
X382415D01*
X382293Y587453D01*
X381417Y588765D01*
X380791Y589183D01*
X380423Y592581D01*
X380791Y595979D01*
X381417Y596398D01*
X382293Y597709D01*
X382601Y599256D01*
Y605906D01*
X382293Y607453D01*
X381417Y608765D01*
X380105Y609641D01*
X379767Y609709D01*
X379331Y610361D01*
X378897Y612542D01*
X377662Y614390D01*
X375813Y615625D01*
X373633Y616059D01*
X371453Y615625D01*
X369604Y614390D01*
X368369Y612542D01*
X367936Y610361D01*
X367500Y609709D01*
X367161Y609641D01*
X365850Y608765D01*
X364973Y607453D01*
X364665Y605906D01*
Y599256D01*
X364973Y597709D01*
X365850Y596398D01*
X366476Y595979D01*
X366843Y592581D01*
X366476Y589183D01*
X365850Y588765D01*
X364973Y587453D01*
X364851Y586839D01*
X315835D01*
X306176Y596498D01*
X304496Y597621D01*
X302514Y598016D01*
X295021D01*
Y603631D01*
X273431D01*
Y582041D01*
X275431D01*
X277251Y575691D01*
X276527Y575135D01*
X274797Y572880D01*
X273709Y570254D01*
X273338Y567436D01*
X273709Y564618D01*
X274797Y561992D01*
X276527Y559737D01*
X278501Y558222D01*
X278782Y556340D01*
Y553132D01*
X278501Y551250D01*
X276527Y549735D01*
X274797Y547480D01*
X273709Y544854D01*
X273338Y542036D01*
X273709Y539218D01*
X274797Y536592D01*
X276527Y534337D01*
X278501Y532822D01*
X278782Y530940D01*
Y527732D01*
X278501Y525850D01*
X276527Y524335D01*
X274797Y522080D01*
X273709Y519454D01*
X273338Y516636D01*
X273709Y513818D01*
X274797Y511192D01*
X276527Y508937D01*
X278501Y507422D01*
X278782Y505540D01*
Y502332D01*
X278501Y500450D01*
X276527Y498935D01*
X274797Y496680D01*
X273709Y494054D01*
X273338Y491236D01*
X273709Y488418D01*
X274797Y485792D01*
X276527Y483537D01*
X278501Y482022D01*
X278782Y480140D01*
Y476932D01*
X278501Y475050D01*
X276527Y473535D01*
X274797Y471280D01*
X273709Y468654D01*
X273338Y465836D01*
X273709Y463018D01*
X274797Y460392D01*
X276527Y458137D01*
X278501Y456622D01*
X278782Y454740D01*
Y451532D01*
X278501Y449650D01*
X276527Y448135D01*
X274797Y445880D01*
X273709Y443254D01*
X273338Y440436D01*
X273709Y437618D01*
X274797Y434992D01*
X276527Y432737D01*
X278501Y431222D01*
X278782Y429340D01*
Y426132D01*
X278501Y424250D01*
X276527Y422735D01*
X274797Y420480D01*
X273709Y417854D01*
X273338Y415036D01*
X273709Y412218D01*
X274797Y409592D01*
X276527Y407337D01*
X278501Y405822D01*
X278782Y403940D01*
Y400732D01*
X278501Y398850D01*
X276527Y397335D01*
X274797Y395080D01*
X273709Y392454D01*
X273338Y389636D01*
X273709Y386818D01*
X274797Y384192D01*
X276527Y381937D01*
X278782Y380207D01*
X281408Y379119D01*
X284226Y378748D01*
X287044Y379119D01*
X288603Y379765D01*
X350567Y317801D01*
X351827Y316959D01*
X353314Y316663D01*
X354017D01*
X355550Y315059D01*
X357750Y310313D01*
X357496Y309699D01*
X357169Y307213D01*
Y303403D01*
X357496Y300917D01*
X358456Y298599D01*
X359983Y296610D01*
X360345Y296332D01*
X360887Y294267D01*
Y290949D01*
X360345Y288884D01*
X359983Y288606D01*
X358456Y286617D01*
X357496Y284300D01*
X357278Y282645D01*
X350874D01*
X350656Y284300D01*
X349696Y286617D01*
X348169Y288606D01*
X346180Y290133D01*
X343862Y291093D01*
X341376Y291420D01*
X338890Y291093D01*
X336572Y290133D01*
X334583Y288606D01*
X333056Y286617D01*
X332096Y284300D01*
X331769Y281813D01*
Y278003D01*
X332096Y275516D01*
X333056Y273199D01*
X334583Y271210D01*
X336572Y269683D01*
X338890Y268723D01*
X341376Y268396D01*
X343862Y268723D01*
X346180Y269683D01*
X348169Y271210D01*
X349696Y273199D01*
X350656Y275516D01*
X350874Y277171D01*
X357278D01*
X357496Y275516D01*
X358456Y273199D01*
X359983Y271210D01*
X361972Y269683D01*
X364290Y268723D01*
X366776Y268396D01*
X369263Y268723D01*
X371580Y269683D01*
X373569Y271210D01*
X375096Y273199D01*
X376056Y275516D01*
X376274Y277171D01*
X382678D01*
X382896Y275516D01*
X383856Y273199D01*
X385383Y271210D01*
X387372Y269683D01*
X389689Y268723D01*
X392176Y268396D01*
X394663Y268723D01*
X396980Y269683D01*
X398969Y271210D01*
X400496Y273199D01*
X401456Y275516D01*
X401783Y278003D01*
Y281813D01*
X401456Y284300D01*
X400496Y286617D01*
X398969Y288606D01*
X398607Y288884D01*
X398065Y290949D01*
Y294267D01*
X398607Y296332D01*
X398969Y296610D01*
X400496Y298599D01*
X401456Y300917D01*
X401674Y302570D01*
X408078D01*
X408296Y300917D01*
X409256Y298599D01*
X410783Y296610D01*
X412772Y295083D01*
X415089Y294123D01*
X417576Y293796D01*
X420062Y294123D01*
X422380Y295083D01*
X424369Y296610D01*
X425896Y298599D01*
X426856Y300917D01*
X427074Y302570D01*
X433478D01*
X433696Y300917D01*
X434656Y298599D01*
X436183Y296610D01*
X436545Y296332D01*
X437087Y294267D01*
Y290949D01*
X436545Y288884D01*
X436183Y288606D01*
X434656Y286617D01*
X433696Y284300D01*
X433369Y281813D01*
Y278003D01*
X433696Y275516D01*
X434656Y273199D01*
X436183Y271210D01*
X438172Y269683D01*
X440490Y268723D01*
X442976Y268396D01*
X445462Y268723D01*
X447780Y269683D01*
X449769Y271210D01*
X451296Y273199D01*
X452256Y275516D01*
X452583Y278003D01*
Y281813D01*
X452256Y284300D01*
X451296Y286617D01*
X449769Y288606D01*
X449407Y288884D01*
X448865Y290949D01*
Y294267D01*
X449407Y296332D01*
X449769Y296610D01*
X451296Y298599D01*
X452256Y300917D01*
X452474Y302570D01*
X458878D01*
X459096Y300917D01*
X460056Y298599D01*
X461583Y296610D01*
X463572Y295083D01*
X465890Y294123D01*
X468376Y293796D01*
X470863Y294123D01*
X473180Y295083D01*
X475169Y296610D01*
X476696Y298599D01*
X477656Y300917D01*
X477874Y302570D01*
X484278D01*
X484496Y300917D01*
X485456Y298599D01*
X486983Y296610D01*
X487345Y296332D01*
X487887Y294267D01*
Y290949D01*
X487345Y288884D01*
X486983Y288606D01*
X485456Y286617D01*
X484496Y284300D01*
X484169Y281813D01*
Y278003D01*
X484496Y275516D01*
X485456Y273199D01*
X486983Y271210D01*
X488972Y269683D01*
X491289Y268723D01*
X493776Y268396D01*
X496263Y268723D01*
X498580Y269683D01*
X500569Y271210D01*
X502096Y273199D01*
X503056Y275516D01*
X503274Y277171D01*
D01*
X503383Y278003D01*
Y281813D01*
X503056Y284300D01*
X502096Y286617D01*
X500634Y288522D01*
Y296694D01*
X502096Y298599D01*
X503056Y300917D01*
X503383Y303403D01*
Y307213D01*
X503056Y309699D01*
X502350Y311404D01*
X503195Y313512D01*
X504445Y315214D01*
X533907D01*
X535158Y313512D01*
X536002Y311404D01*
X535296Y309699D01*
X534969Y307213D01*
Y303403D01*
X535296Y300917D01*
X536256Y298599D01*
X537783Y296610D01*
X538226Y296269D01*
Y288946D01*
X537783Y288606D01*
X536256Y286617D01*
X535296Y284300D01*
X534969Y281813D01*
Y278003D01*
X535078Y277171D01*
X535296Y275516D01*
X536256Y273199D01*
X537783Y271210D01*
X539772Y269683D01*
X542090Y268723D01*
X544576Y268396D01*
X547062Y268723D01*
X549380Y269683D01*
X551369Y271210D01*
X552896Y273199D01*
X553856Y275516D01*
X554074Y277171D01*
X560478D01*
X560696Y275516D01*
X561656Y273199D01*
X563183Y271210D01*
X565172Y269683D01*
X567490Y268723D01*
X569976Y268396D01*
X572463Y268723D01*
X574780Y269683D01*
X576769Y271210D01*
X578296Y273199D01*
X579256Y275516D01*
X579583Y278003D01*
Y281813D01*
X579256Y284300D01*
X578296Y286617D01*
X576769Y288606D01*
X576407Y288884D01*
X575865Y290949D01*
Y294267D01*
X576407Y296332D01*
X576769Y296610D01*
X578296Y298599D01*
X579256Y300917D01*
X579474Y302570D01*
X585878D01*
X586096Y300917D01*
X587056Y298599D01*
X588583Y296610D01*
X590572Y295083D01*
X592890Y294123D01*
X595376Y293796D01*
X597863Y294123D01*
X600180Y295083D01*
X602169Y296610D01*
X603696Y298599D01*
X604656Y300917D01*
X604874Y302570D01*
X611278D01*
X611496Y300917D01*
X612456Y298599D01*
X613983Y296610D01*
X614345Y296332D01*
X614887Y294267D01*
Y290949D01*
X614345Y288884D01*
X613983Y288606D01*
X612456Y286617D01*
X611496Y284300D01*
X611169Y281813D01*
Y278003D01*
X611496Y275516D01*
X612456Y273199D01*
X613983Y271210D01*
X615972Y269683D01*
X618289Y268723D01*
X620776Y268396D01*
X623262Y268723D01*
X625580Y269683D01*
X627569Y271210D01*
X629096Y273199D01*
X630056Y275516D01*
X630274Y277171D01*
X636678D01*
X636896Y275516D01*
X637856Y273199D01*
X639383Y271210D01*
X641372Y269683D01*
X643689Y268723D01*
X646176Y268396D01*
X648662Y268723D01*
X650980Y269683D01*
X652969Y271210D01*
X654496Y273199D01*
X655456Y275516D01*
X655783Y278003D01*
Y281813D01*
X655456Y284300D01*
X654496Y286617D01*
X652969Y288606D01*
X652607Y288884D01*
X652065Y290949D01*
Y294267D01*
X652607Y296332D01*
X652969Y296610D01*
X654496Y298599D01*
X655456Y300917D01*
X655674Y302570D01*
X662078D01*
X662296Y300917D01*
X663256Y298599D01*
X664783Y296610D01*
X666772Y295083D01*
X669090Y294123D01*
X671576Y293796D01*
X674062Y294123D01*
X676380Y295083D01*
X678369Y296610D01*
X679896Y298599D01*
X680856Y300917D01*
X681074Y302570D01*
X687478D01*
X687696Y300917D01*
X688656Y298599D01*
X690183Y296610D01*
X690545Y296332D01*
X691087Y294267D01*
Y290949D01*
X690545Y288884D01*
X690183Y288606D01*
X688656Y286617D01*
X687696Y284300D01*
X687369Y281813D01*
Y278003D01*
X687696Y275516D01*
X688656Y273199D01*
X690183Y271210D01*
X692172Y269683D01*
X694490Y268723D01*
X696976Y268396D01*
X699463Y268723D01*
X701780Y269683D01*
X703769Y271210D01*
X705296Y273199D01*
X706256Y275516D01*
X706474Y277171D01*
X712878D01*
X713096Y275516D01*
X714056Y273199D01*
X715583Y271210D01*
X717572Y269683D01*
X719890Y268723D01*
X722376Y268396D01*
X724863Y268723D01*
X727180Y269683D01*
X729169Y271210D01*
X730696Y273199D01*
X731656Y275516D01*
X731874Y277171D01*
X738278D01*
X738496Y275516D01*
X739456Y273199D01*
X740983Y271210D01*
X742972Y269683D01*
X745290Y268723D01*
X747776Y268396D01*
X750263Y268723D01*
X752580Y269683D01*
X754569Y271210D01*
X756096Y273199D01*
X757056Y275516D01*
X757383Y278003D01*
Y281813D01*
X757056Y284300D01*
X756096Y286617D01*
X754569Y288606D01*
X754207Y288884D01*
X753665Y290949D01*
Y294267D01*
X754207Y296332D01*
X754569Y296610D01*
X756096Y298599D01*
X757056Y300917D01*
X757274Y302570D01*
X763678D01*
X763896Y300917D01*
X764856Y298599D01*
X766383Y296610D01*
X768372Y295083D01*
X770689Y294123D01*
X773176Y293796D01*
X775663Y294123D01*
X777980Y295083D01*
X779969Y296610D01*
X781496Y298599D01*
X782456Y300917D01*
X782674Y302570D01*
X789078D01*
X789296Y300917D01*
X790256Y298599D01*
X791783Y296610D01*
X792145Y296332D01*
X792687Y294267D01*
Y290949D01*
X792145Y288884D01*
X791783Y288606D01*
X790256Y286617D01*
X789296Y284300D01*
X788969Y281813D01*
Y278003D01*
X789296Y275516D01*
X790256Y273199D01*
X791783Y271210D01*
X793772Y269683D01*
X796089Y268723D01*
X798576Y268396D01*
X801062Y268723D01*
X803380Y269683D01*
X805369Y271210D01*
X806896Y273199D01*
X807856Y275516D01*
X808074Y277171D01*
X814478D01*
X814696Y275516D01*
X815656Y273199D01*
X817183Y271210D01*
X819172Y269683D01*
X821489Y268723D01*
X823976Y268396D01*
X825512Y268598D01*
X827721Y266765D01*
X827737Y265948D01*
X824578Y260415D01*
X304164D01*
X302901Y266765D01*
X304642Y267486D01*
X308338Y269751D01*
X311634Y272566D01*
X314449Y275862D01*
X316714Y279558D01*
X318373Y283563D01*
X319385Y287778D01*
X319725Y292100D01*
X319385Y296422D01*
X318373Y300637D01*
X316714Y304642D01*
X314449Y308338D01*
X311634Y311634D01*
X308338Y314449D01*
X304642Y316714D01*
X300637Y318373D01*
X296422Y319385D01*
X292100Y319725D01*
X287778Y319385D01*
X283563Y318373D01*
X279558Y316714D01*
X275862Y314449D01*
X272566Y311634D01*
X269751Y308338D01*
X267486Y304642D01*
X266765Y302901D01*
X260415Y304164D01*
Y770036D01*
X266765Y771299D01*
X267486Y769558D01*
X269751Y765862D01*
X272566Y762566D01*
X275862Y759751D01*
X279558Y757486D01*
X283563Y755827D01*
X287778Y754815D01*
X292100Y754475D01*
X296422Y754815D01*
X300637Y755827D01*
X304642Y757486D01*
X308338Y759751D01*
X311634Y762566D01*
X314449Y765862D01*
X316714Y769558D01*
X318373Y773563D01*
X319385Y777778D01*
X319725Y782100D01*
X319385Y786422D01*
X318373Y790637D01*
X316714Y794641D01*
X314449Y798338D01*
X311634Y801634D01*
X308338Y804449D01*
X304642Y806714D01*
X302983Y807401D01*
X304246Y813751D01*
X859954D01*
X861217Y807401D01*
D02*
G37*
%LPC*%
G36*
X628396Y805908D02*
X625578Y805537D01*
X622952Y804449D01*
X620697Y802719D01*
X618967Y800464D01*
X617879Y797838D01*
X617508Y795020D01*
X617879Y792202D01*
X618967Y789576D01*
X620697Y787321D01*
X622952Y785591D01*
X625578Y784503D01*
X628396Y784132D01*
X631214Y784503D01*
X633840Y785591D01*
X636095Y787321D01*
X636651Y788045D01*
X643001Y786225D01*
Y784225D01*
X664591D01*
Y805815D01*
X643001D01*
Y803815D01*
X636651Y801995D01*
X636095Y802719D01*
X633840Y804449D01*
X631214Y805537D01*
X628396Y805908D01*
D02*
G37*
G36*
X583396Y764861D02*
X579712Y764498D01*
X576171Y763424D01*
X572906Y761679D01*
X570045Y759331D01*
X567697Y756470D01*
X565952Y753205D01*
X564878Y749663D01*
X564515Y745980D01*
X564878Y742297D01*
X565952Y738755D01*
X567697Y735490D01*
X570045Y732629D01*
X572906Y730281D01*
X576171Y728536D01*
X579712Y727462D01*
X583396Y727099D01*
X587080Y727462D01*
X590621Y728536D01*
X593886Y730281D01*
X596747Y732629D01*
X599095Y735490D01*
X600840Y738755D01*
X601914Y742297D01*
X602277Y745980D01*
X601914Y749663D01*
X600840Y753205D01*
X599095Y756470D01*
X596747Y759331D01*
X593886Y761679D01*
X590621Y763424D01*
X587080Y764498D01*
X583396Y764861D01*
D02*
G37*
G36*
X481796D02*
X478112Y764498D01*
X474571Y763424D01*
X471306Y761679D01*
X468445Y759331D01*
X466097Y756470D01*
X464352Y753205D01*
X463278Y749663D01*
X462915Y745980D01*
X463278Y742297D01*
X464352Y738755D01*
X466097Y735490D01*
X468445Y732629D01*
X471306Y730281D01*
X474571Y728536D01*
X478112Y727462D01*
X481796Y727099D01*
X485480Y727462D01*
X489021Y728536D01*
X492286Y730281D01*
X495147Y732629D01*
X497495Y735490D01*
X499240Y738755D01*
X500314Y742297D01*
X500677Y745980D01*
X500314Y749663D01*
X499240Y753205D01*
X497495Y756470D01*
X495147Y759331D01*
X492286Y761679D01*
X489021Y763424D01*
X485480Y764498D01*
X481796Y764861D01*
D02*
G37*
G36*
X437092D02*
X433409Y764498D01*
X429867Y763424D01*
X426602Y761679D01*
X423741Y759331D01*
X421393Y756470D01*
X419648Y753205D01*
X418574Y749663D01*
X418211Y745980D01*
X418574Y742297D01*
X419648Y738755D01*
X421393Y735490D01*
X423741Y732629D01*
X426602Y730281D01*
X429867Y728536D01*
X433409Y727462D01*
X437092Y727099D01*
X440775Y727462D01*
X444317Y728536D01*
X447582Y730281D01*
X450443Y732629D01*
X452791Y735490D01*
X454536Y738755D01*
X455610Y742297D01*
X455973Y745980D01*
X455610Y749663D01*
X454536Y753205D01*
X452791Y756470D01*
X450443Y759331D01*
X447582Y761679D01*
X444317Y763424D01*
X440775Y764498D01*
X437092Y764861D01*
D02*
G37*
G36*
X335492D02*
X331809Y764498D01*
X328267Y763424D01*
X325002Y761679D01*
X322141Y759331D01*
X319793Y756470D01*
X318048Y753205D01*
X316974Y749663D01*
X316611Y745980D01*
X316974Y742297D01*
X318048Y738755D01*
X319793Y735490D01*
X322141Y732629D01*
X325002Y730281D01*
X328267Y728536D01*
X331809Y727462D01*
X335492Y727099D01*
X339175Y727462D01*
X342717Y728536D01*
X345982Y730281D01*
X348843Y732629D01*
X351191Y735490D01*
X352936Y738755D01*
X354010Y742297D01*
X354373Y745980D01*
X354010Y749663D01*
X352936Y753205D01*
X351191Y756470D01*
X348843Y759331D01*
X345982Y761679D01*
X342717Y763424D01*
X339175Y764498D01*
X335492Y764861D01*
D02*
G37*
G36*
X818388Y731122D02*
X787908D01*
Y700642D01*
X818388D01*
Y731122D01*
D02*
G37*
G36*
X760984Y676512D02*
X758804Y676078D01*
X756955Y674843D01*
X755720Y672994D01*
X755286Y670814D01*
X755720Y668634D01*
X756955Y666785D01*
X754743Y661176D01*
X728011Y634445D01*
X727169Y633185D01*
X726873Y631698D01*
Y620075D01*
X726729Y619979D01*
X725494Y618130D01*
X725061Y615950D01*
X725494Y613770D01*
X726729Y611921D01*
X728578Y610686D01*
X730758Y610252D01*
X732938Y610686D01*
X734787Y611921D01*
X736022Y613770D01*
X736456Y615950D01*
X736022Y618130D01*
X734787Y619979D01*
X734643Y620075D01*
Y630089D01*
X763731Y659177D01*
X764573Y660437D01*
X764869Y661924D01*
Y666689D01*
X765013Y666785D01*
X766248Y668634D01*
X766682Y670814D01*
X766248Y672994D01*
X765013Y674843D01*
X763164Y676078D01*
X760984Y676512D01*
D02*
G37*
G36*
X519176Y291420D02*
X516689Y291093D01*
X514372Y290133D01*
X512383Y288606D01*
X510856Y286617D01*
X509896Y284300D01*
X509569Y281813D01*
Y278003D01*
X509678Y277171D01*
X509896Y275516D01*
X510856Y273199D01*
X512383Y271210D01*
X514372Y269683D01*
X516689Y268723D01*
X519176Y268396D01*
X521662Y268723D01*
X523980Y269683D01*
X525969Y271210D01*
X527496Y273199D01*
X528456Y275516D01*
X528674Y277171D01*
Y277171D01*
D01*
X528783Y278003D01*
Y281813D01*
X528456Y284300D01*
X527496Y286617D01*
X525969Y288606D01*
X523980Y290133D01*
X521662Y291093D01*
X519176Y291420D01*
D02*
G37*
%LPD*%
D12*
X899668Y285496D02*
Y555752D01*
X878332Y264160D02*
X899668Y285496D01*
X839724Y264160D02*
X878332D01*
X678688Y328168D02*
X721868D01*
X371094D02*
X678688D01*
X353314Y320548D02*
X702564D01*
X891380Y564040D02*
X899668Y555752D01*
X672686Y564040D02*
X891380D01*
X708914Y293370D02*
X722376Y279908D01*
X735330Y292354D02*
Y314706D01*
Y292354D02*
X747776Y279908D01*
X708914Y293370D02*
Y314198D01*
X284226Y465836D02*
X407924Y342138D01*
X761746D01*
X798576Y305308D01*
X284226Y440436D02*
X389382Y335280D01*
X743204D01*
X773176Y305308D01*
X284226Y389636D02*
X353314Y320548D01*
X702564D02*
X708914Y314198D01*
X284226Y415036D02*
X371094Y328168D01*
X721868D02*
X735330Y314706D01*
X823976Y279908D02*
X839724Y264160D01*
X513106Y669290D02*
X526296Y682480D01*
X379992D02*
X393182Y669290D01*
X513106D01*
X730758Y615950D02*
Y631698D01*
X760984Y661924D01*
Y670814D01*
D24*
X373633Y602581D02*
D03*
Y582581D02*
D03*
X412750Y601820D02*
D03*
Y581820D02*
D03*
D36*
X611030Y364236D02*
D03*
X631030D02*
D03*
X611284Y394208D02*
D03*
X631284D02*
D03*
D69*
X631300D02*
Y400922D01*
X638810Y408432D01*
X697738D01*
X559816Y542798D02*
X563880D01*
X697738Y408940D01*
X706628Y408432D02*
Y420116D01*
X562102Y564642D02*
X706628Y420116D01*
X450342Y564642D02*
X562102D01*
X373633Y602581D02*
Y610361D01*
X412750Y601820D02*
Y609600D01*
X284226Y592836D02*
X302514D01*
X604266Y364744D02*
X610522D01*
X611030Y364236D01*
X604266Y394208D02*
X611284D01*
X302514Y592836D02*
X313690Y581660D01*
X631030Y393954D02*
X631284Y394208D01*
X631030Y364236D02*
Y364490D01*
Y393954D01*
X630522Y363982D02*
X631030Y364490D01*
X631284Y364744D01*
X313690Y581660D02*
X433324D01*
X450342Y564642D01*
D70*
X716788Y408432D02*
X723138D01*
X592836Y574294D02*
X716534Y450596D01*
Y409956D02*
Y450596D01*
X530596Y703580D02*
X551696Y682480D01*
X565422D01*
X592836Y655066D01*
Y574294D02*
Y655066D01*
X405392Y682480D02*
X426492Y703580D01*
X530596D01*
D71*
X564396Y657080D02*
D03*
X551696Y682480D02*
D03*
X538996Y657080D02*
D03*
X526296Y682480D02*
D03*
X513596Y657080D02*
D03*
X500896Y682480D02*
D03*
X418092Y657080D02*
D03*
X405392Y682480D02*
D03*
X392692Y657080D02*
D03*
X379992Y682480D02*
D03*
X367292Y657080D02*
D03*
X354592Y682480D02*
D03*
D72*
X803148Y715882D02*
D03*
Y665590D02*
D03*
D73*
X700278Y643890D02*
D03*
D74*
X798576Y305308D02*
D03*
X773176D02*
D03*
X747776D02*
D03*
X722376D02*
D03*
X696976D02*
D03*
X671576D02*
D03*
X646176D02*
D03*
X620776D02*
D03*
X595376D02*
D03*
X569976D02*
D03*
X544576D02*
D03*
X519176D02*
D03*
X493776D02*
D03*
X468376D02*
D03*
X442976D02*
D03*
X366776D02*
D03*
X341376D02*
D03*
X417576D02*
D03*
X392176D02*
D03*
Y279908D02*
D03*
X417576D02*
D03*
X341376D02*
D03*
X366776D02*
D03*
X442976D02*
D03*
X468376D02*
D03*
X493776D02*
D03*
X519176D02*
D03*
X544576D02*
D03*
X569976D02*
D03*
X595376D02*
D03*
X620776D02*
D03*
X646176D02*
D03*
X671576D02*
D03*
X696976D02*
D03*
X722376D02*
D03*
X747776D02*
D03*
X773176D02*
D03*
X798576D02*
D03*
X823976D02*
D03*
D75*
Y305308D02*
D03*
D76*
X653796Y795020D02*
D03*
D77*
X628396D02*
D03*
X284226Y415036D02*
D03*
Y440436D02*
D03*
Y567436D02*
D03*
Y465836D02*
D03*
Y491236D02*
D03*
Y542036D02*
D03*
Y516636D02*
D03*
Y389636D02*
D03*
Y364236D02*
D03*
D78*
Y592836D02*
D03*
D79*
X292100Y292100D02*
D03*
X872100Y782100D02*
D03*
X292100D02*
D03*
D80*
X706628Y643890D02*
D03*
X693928D02*
D03*
D81*
X844804Y685800D02*
D03*
X844550Y677926D02*
D03*
Y670560D02*
D03*
Y663194D02*
D03*
X844296Y656082D02*
D03*
X852424D02*
D03*
X852678Y663194D02*
D03*
Y670560D02*
D03*
Y677926D02*
D03*
X852932Y685800D02*
D03*
X837184Y686054D02*
D03*
X836930Y678180D02*
D03*
Y670814D02*
D03*
Y663448D02*
D03*
X836676Y656336D02*
D03*
X828548D02*
D03*
X828802Y663448D02*
D03*
Y670814D02*
D03*
Y678180D02*
D03*
X829056Y686054D02*
D03*
X845058Y723646D02*
D03*
X844804Y715772D02*
D03*
Y708406D02*
D03*
Y701040D02*
D03*
X844550Y693928D02*
D03*
X852678D02*
D03*
X852932Y701040D02*
D03*
Y708406D02*
D03*
Y715772D02*
D03*
X853186Y723646D02*
D03*
X837438Y723900D02*
D03*
X837184Y716026D02*
D03*
Y708660D02*
D03*
Y701294D02*
D03*
X836930Y694182D02*
D03*
X828802D02*
D03*
X829056Y701294D02*
D03*
Y708660D02*
D03*
Y716026D02*
D03*
X829310Y723900D02*
D03*
X504698Y475742D02*
D03*
X504444Y467868D02*
D03*
Y460502D02*
D03*
Y453136D02*
D03*
X504190Y446024D02*
D03*
X512318D02*
D03*
X512572Y453136D02*
D03*
Y460502D02*
D03*
Y467868D02*
D03*
X512826Y475742D02*
D03*
X497078Y475996D02*
D03*
X496824Y468122D02*
D03*
Y460756D02*
D03*
Y453390D02*
D03*
X496570Y446278D02*
D03*
X488442D02*
D03*
X488696Y453390D02*
D03*
Y460756D02*
D03*
Y468122D02*
D03*
X488950Y475996D02*
D03*
X504952Y513842D02*
D03*
X504698Y505968D02*
D03*
Y498602D02*
D03*
Y491236D02*
D03*
X504444Y484124D02*
D03*
X512572D02*
D03*
X512826Y491236D02*
D03*
Y498602D02*
D03*
Y505968D02*
D03*
X513080Y513842D02*
D03*
X497332Y514096D02*
D03*
X497078Y506222D02*
D03*
Y498856D02*
D03*
Y491490D02*
D03*
X496824Y484378D02*
D03*
X488696D02*
D03*
X488950Y491490D02*
D03*
Y498856D02*
D03*
Y506222D02*
D03*
X489204Y514096D02*
D03*
X676148Y383794D02*
D03*
X675894Y375920D02*
D03*
Y368554D02*
D03*
Y361188D02*
D03*
X675640Y354076D02*
D03*
X683768D02*
D03*
X684022Y361188D02*
D03*
Y368554D02*
D03*
Y375920D02*
D03*
X684276Y383794D02*
D03*
X668528Y384048D02*
D03*
X668274Y376174D02*
D03*
Y368808D02*
D03*
Y361442D02*
D03*
X668020Y354330D02*
D03*
X659892D02*
D03*
X660146Y361442D02*
D03*
Y368808D02*
D03*
Y376174D02*
D03*
X660400Y384048D02*
D03*
X433832Y412750D02*
D03*
X433578Y404876D02*
D03*
Y397510D02*
D03*
Y390144D02*
D03*
X433324Y383032D02*
D03*
X441452D02*
D03*
X441706Y390144D02*
D03*
Y397510D02*
D03*
Y404876D02*
D03*
X441960Y412750D02*
D03*
X426212Y413004D02*
D03*
X425958Y405130D02*
D03*
Y397764D02*
D03*
Y390398D02*
D03*
X425704Y383286D02*
D03*
X417576D02*
D03*
X417830Y390398D02*
D03*
Y397764D02*
D03*
Y405130D02*
D03*
X418084Y413004D02*
D03*
X634492Y599948D02*
D03*
X634238Y592074D02*
D03*
Y584708D02*
D03*
Y577342D02*
D03*
X633984Y570230D02*
D03*
X642112D02*
D03*
X642366Y577342D02*
D03*
Y584708D02*
D03*
Y592074D02*
D03*
X642620Y599948D02*
D03*
X626872Y600202D02*
D03*
X626618Y592328D02*
D03*
Y584962D02*
D03*
Y577596D02*
D03*
X626364Y570484D02*
D03*
X618236D02*
D03*
X618490Y577596D02*
D03*
Y584962D02*
D03*
Y592328D02*
D03*
X618744Y600202D02*
D03*
X615188Y455676D02*
D03*
X614934Y447802D02*
D03*
Y440436D02*
D03*
Y433070D02*
D03*
X614680Y425958D02*
D03*
X622808D02*
D03*
X623062Y433070D02*
D03*
Y440436D02*
D03*
Y447802D02*
D03*
X623316Y455676D02*
D03*
X607568Y455930D02*
D03*
X607314Y448056D02*
D03*
Y440690D02*
D03*
Y433324D02*
D03*
X607060Y426212D02*
D03*
X598932D02*
D03*
X599186Y433324D02*
D03*
Y440690D02*
D03*
Y448056D02*
D03*
X599440Y455930D02*
D03*
X464312Y805688D02*
D03*
X464058Y797814D02*
D03*
Y790448D02*
D03*
Y783082D02*
D03*
X463804Y775970D02*
D03*
X471932D02*
D03*
X472186Y783082D02*
D03*
Y790448D02*
D03*
Y797814D02*
D03*
X472440Y805688D02*
D03*
X456692Y805942D02*
D03*
X456438Y798068D02*
D03*
Y790702D02*
D03*
Y783336D02*
D03*
X456184Y776224D02*
D03*
X448056D02*
D03*
X448310Y783336D02*
D03*
Y790702D02*
D03*
Y798068D02*
D03*
X448564Y805942D02*
D03*
X591058Y805688D02*
D03*
X590804Y797814D02*
D03*
Y790448D02*
D03*
Y783082D02*
D03*
X590550Y775970D02*
D03*
X598678D02*
D03*
X598932Y783082D02*
D03*
Y790448D02*
D03*
Y797814D02*
D03*
X599186Y805688D02*
D03*
X583438Y805942D02*
D03*
X583184Y798068D02*
D03*
Y790702D02*
D03*
Y783336D02*
D03*
X582930Y776224D02*
D03*
X574802D02*
D03*
X575056Y783336D02*
D03*
Y790702D02*
D03*
Y798068D02*
D03*
X575310Y805942D02*
D03*
X350012Y802640D02*
D03*
X349758Y794766D02*
D03*
Y787400D02*
D03*
Y780034D02*
D03*
X349504Y772922D02*
D03*
X357632D02*
D03*
X357886Y780034D02*
D03*
Y787400D02*
D03*
Y794766D02*
D03*
X358140Y802640D02*
D03*
X342392Y802894D02*
D03*
X342138Y795020D02*
D03*
Y787654D02*
D03*
Y780288D02*
D03*
X341884Y773176D02*
D03*
X333756D02*
D03*
X334010Y780288D02*
D03*
Y787654D02*
D03*
Y795020D02*
D03*
X334264Y802894D02*
D03*
X288544Y698754D02*
D03*
X288290Y690880D02*
D03*
Y683514D02*
D03*
Y676148D02*
D03*
X288036Y669036D02*
D03*
X296164D02*
D03*
X296418Y676148D02*
D03*
Y683514D02*
D03*
Y690880D02*
D03*
X296672Y698754D02*
D03*
X280924Y699008D02*
D03*
X280670Y691134D02*
D03*
Y683768D02*
D03*
Y676402D02*
D03*
X280416Y669290D02*
D03*
X272288D02*
D03*
X272542Y676402D02*
D03*
Y683768D02*
D03*
Y691134D02*
D03*
X272796Y699008D02*
D03*
X273558Y737108D02*
D03*
X273304Y729234D02*
D03*
Y721868D02*
D03*
Y714502D02*
D03*
X273050Y707390D02*
D03*
X281178D02*
D03*
X281432Y714502D02*
D03*
Y721868D02*
D03*
Y729234D02*
D03*
X281686Y737108D02*
D03*
X534670Y633476D02*
D03*
X525780Y633730D02*
D03*
X517906Y633476D02*
D03*
X510032Y633730D02*
D03*
X502158D02*
D03*
X559816Y542798D02*
D03*
X631952Y320802D02*
D03*
X716788Y408432D02*
D03*
X695706Y525272D02*
D03*
X695960Y514604D02*
D03*
X696722Y534162D02*
D03*
X695960Y497840D02*
D03*
X496316Y394208D02*
D03*
X496062Y384556D02*
D03*
X297434Y736854D02*
D03*
X297180Y728980D02*
D03*
Y721614D02*
D03*
Y714248D02*
D03*
X296926Y707136D02*
D03*
X288798D02*
D03*
X289052Y714248D02*
D03*
Y721614D02*
D03*
Y728980D02*
D03*
X289306Y736854D02*
D03*
X697738Y408432D02*
D03*
X706628D02*
D03*
X723138D02*
D03*
X373633Y610361D02*
D03*
X412750Y609600D02*
D03*
X604266Y364744D02*
D03*
Y394208D02*
D03*
X745998Y362712D02*
D03*
X758698D02*
D03*
X773938D02*
D03*
X786638D02*
D03*
X495300Y375158D02*
D03*
X730758Y615950D02*
D03*
X672686Y564040D02*
D03*
X760984Y670814D02*
D03*
X450342Y564642D02*
D03*
X729488Y655574D02*
D03*
X736092D02*
D03*
X729488Y648716D02*
D03*
X742696Y655574D02*
D03*
X722884D02*
D03*
Y648716D02*
D03*
X736092D02*
D03*
X756158Y633476D02*
D03*
Y640080D02*
D03*
Y646684D02*
D03*
X670052Y640588D02*
D03*
Y633984D02*
D03*
X663702Y640588D02*
D03*
Y634238D02*
D03*
X657352Y640588D02*
D03*
Y634238D02*
D03*
X729488Y641858D02*
D03*
X722884D02*
D03*
X786638Y374142D02*
D03*
X773938D02*
D03*
X758698D02*
D03*
X745998D02*
D03*
X650494Y328168D02*
D03*
M02*
