G04*
G04 #@! TF.GenerationSoftware,Altium Limited,Altium Designer,18.0.12 (696)*
G04*
G04 Layer_Color=32768*
%FSLAX44Y44*%
%MOMM*%
G71*
G01*
G75*
%ADD82C,0.0508*%
%ADD84C,0.1000*%
%ADD85C,0.0500*%
D82*
X585216Y292608D02*
G03*
X585216Y292608I-2540J0D01*
G01*
X643636Y795020D02*
G03*
X643636Y795020I-2540J0D01*
G01*
X286766Y478536D02*
G03*
X286766Y478536I-2540J0D01*
G01*
X802640Y326644D02*
Y419100D01*
X732282Y326644D02*
X802640D01*
X732282D02*
Y419100D01*
X802640D01*
X354584Y396240D02*
X406146D01*
Y540512D01*
X354584D02*
X406146D01*
X354584Y396240D02*
Y540512D01*
X326136Y266908D02*
X838708D01*
X326136D02*
Y318308D01*
X838708Y266908D02*
Y318308D01*
X326136D02*
X838708D01*
X582676Y287528D02*
Y297688D01*
X577596Y292608D02*
X587756D01*
X615696Y782320D02*
X666496D01*
X615696D02*
Y807720D01*
X666496D01*
Y782320D02*
Y807720D01*
X641096Y789940D02*
Y800100D01*
X636016Y795020D02*
X646176D01*
X284226Y473456D02*
Y483616D01*
X279146Y478536D02*
X289306D01*
X271526Y605536D02*
X296926D01*
X271526Y351536D02*
Y605536D01*
Y351536D02*
X296926D01*
Y605536D01*
D84*
X496482Y575484D02*
Y585484D01*
X491482Y580484D02*
X501482D01*
X458982Y552984D02*
X533982D01*
X458982Y607984D02*
X533982D01*
Y552984D02*
Y607984D01*
X458982Y552984D02*
Y607984D01*
X500380Y473536D02*
Y483536D01*
X495380Y478536D02*
X505380D01*
X695278Y643890D02*
X705278D01*
X700278Y638890D02*
Y648890D01*
D85*
X716000Y382522D02*
G03*
X716000Y382522I-3500J0D01*
G01*
X544012Y609600D02*
G03*
X544012Y609600I-3500J0D01*
G01*
X748482Y803910D02*
G03*
X748482Y803910I-3500J0D01*
G01*
X416250Y591820D02*
G03*
X416250Y591820I-3500J0D01*
G01*
X736544Y761746D02*
G03*
X736544Y761746I-3500J0D01*
G01*
X725874Y730474D02*
G03*
X725874Y730474I-3500J0D01*
G01*
X541782Y545338D02*
G03*
X541782Y545338I-1270J0D01*
G01*
X645612Y624840D02*
G03*
X645612Y624840I-3500J0D01*
G01*
X665932Y609346D02*
G03*
X665932Y609346I-3500J0D01*
G01*
X685744Y588518D02*
G03*
X685744Y588518I-3500J0D01*
G01*
X665932Y573532D02*
G03*
X665932Y573532I-3500J0D01*
G01*
X813054Y385572D02*
G03*
X813054Y385572I-1270J0D01*
G01*
X710438Y598170D02*
G03*
X710438Y598170I-1270J0D01*
G01*
Y578358D02*
G03*
X710438Y578358I-1270J0D01*
G01*
X784298Y448848D02*
G03*
X784298Y448848I-3500J0D01*
G01*
X725874Y697454D02*
G03*
X725874Y697454I-3500J0D01*
G01*
X632404Y760730D02*
G03*
X632404Y760730I-3500J0D01*
G01*
X665678Y661162D02*
G03*
X665678Y661162I-3500J0D01*
G01*
X645104D02*
G03*
X645104Y661162I-3500J0D01*
G01*
X690824Y699516D02*
G03*
X690824Y699516I-3500J0D01*
G01*
X746252Y671068D02*
G03*
X746252Y671068I-1270J0D01*
G01*
X572460Y527050D02*
G03*
X572460Y527050I-3500J0D01*
G01*
X451866Y581660D02*
G03*
X451866Y581660I-1270J0D01*
G01*
X419862Y487934D02*
G03*
X419862Y487934I-1270J0D01*
G01*
X420116Y449834D02*
G03*
X420116Y449834I-1270J0D01*
G01*
X712160Y804164D02*
G03*
X712160Y804164I-3500J0D01*
G01*
X624530Y364236D02*
G03*
X624530Y364236I-3500J0D01*
G01*
X624784Y394208D02*
G03*
X624784Y394208I-3500J0D01*
G01*
X377133Y592581D02*
G03*
X377133Y592581I-3500J0D01*
G01*
X416250Y591820D02*
G03*
X416250Y591820I-3500J0D01*
G01*
X625546Y364490D02*
G03*
X625546Y364490I-3500J0D01*
G01*
X625800Y394208D02*
G03*
X625800Y394208I-3500J0D01*
G01*
X377133Y592581D02*
G03*
X377133Y592581I-3500J0D01*
G01*
X748736Y618998D02*
G03*
X748736Y618998I-3500J0D01*
G01*
X712500Y377522D02*
Y387522D01*
X707500Y382522D02*
X717500D01*
X696500Y406022D02*
X728500D01*
Y359022D02*
Y406022D01*
X696500Y359022D02*
X728500D01*
X696500D02*
Y406022D01*
X442130Y418036D02*
X558630D01*
X442130Y539036D02*
X558630D01*
Y418036D02*
Y539036D01*
X442130Y418036D02*
Y539036D01*
X530512Y592100D02*
Y627100D01*
Y592100D02*
X550512D01*
Y627100D01*
X530512D02*
X550512D01*
X535512Y609600D02*
X545512D01*
X540512Y604600D02*
Y614600D01*
X728482Y813410D02*
X761482D01*
X728482Y794410D02*
Y813410D01*
Y794410D02*
X761482D01*
Y813410D01*
X744982Y798910D02*
Y808910D01*
X739982Y803910D02*
X749982D01*
X412750Y586820D02*
Y596820D01*
X407750Y591820D02*
X417750D01*
X403250Y575320D02*
X422250D01*
X403250D02*
Y608320D01*
X422250D01*
Y575320D02*
Y608320D01*
X672778Y606890D02*
Y680890D01*
X727778Y606890D02*
Y680890D01*
X672778Y606890D02*
X727778D01*
X672778Y680890D02*
X727778D01*
X728044Y761746D02*
X738044D01*
X733044Y756746D02*
Y766746D01*
X699044Y745246D02*
Y778246D01*
X767044D01*
Y745246D02*
Y778246D01*
X699044Y745246D02*
X767044D01*
X698874Y746474D02*
X745874D01*
X698874Y714474D02*
Y746474D01*
Y714474D02*
X745874D01*
Y746474D01*
X722374Y725474D02*
Y735474D01*
X717374Y730474D02*
X727374D01*
X537972Y545338D02*
X543052D01*
X540512Y542798D02*
Y547878D01*
X526012Y537838D02*
Y552838D01*
X555012D01*
Y537838D02*
Y552838D01*
X526012Y537838D02*
X555012D01*
X632112Y607340D02*
Y642340D01*
Y607340D02*
X652112D01*
Y642340D01*
X632112D02*
X652112D01*
X637112Y624840D02*
X647112D01*
X642112Y619840D02*
Y629840D01*
X652432Y591846D02*
Y626846D01*
Y591846D02*
X672432D01*
Y626846D01*
X652432D02*
X672432D01*
X657432Y609346D02*
X667432D01*
X662432Y604346D02*
Y614346D01*
X692244Y571018D02*
Y606018D01*
X672244D02*
X692244D01*
X672244Y571018D02*
Y606018D01*
Y571018D02*
X692244D01*
X677244Y588518D02*
X687244D01*
X682244Y583518D02*
Y593518D01*
X652432Y556032D02*
Y591032D01*
Y556032D02*
X672432D01*
Y591032D01*
X652432D02*
X672432D01*
X657432Y573532D02*
X667432D01*
X662432Y568532D02*
Y578532D01*
X819284Y371072D02*
Y400072D01*
X804284D02*
X819284D01*
X804284Y371072D02*
Y400072D01*
Y371072D02*
X819284D01*
X809244Y385572D02*
X814324D01*
X811784Y383032D02*
Y388112D01*
X694668Y605670D02*
X723668D01*
X694668Y590670D02*
Y605670D01*
Y590670D02*
X723668D01*
Y605670D01*
X709168Y595630D02*
Y600710D01*
X706628Y598170D02*
X711708D01*
X694668Y585858D02*
X723668D01*
X694668Y570858D02*
Y585858D01*
Y570858D02*
X723668D01*
Y585858D01*
X709168Y575818D02*
Y580898D01*
X706628Y578358D02*
X711708D01*
X757298Y432848D02*
X804298D01*
Y464848D01*
X757298D02*
X804298D01*
X757298Y432848D02*
Y464848D01*
X780798Y443848D02*
Y453848D01*
X775798Y448848D02*
X785798D01*
X698874Y713454D02*
X745874D01*
X698874Y681454D02*
Y713454D01*
Y681454D02*
X745874D01*
Y713454D01*
X722374Y692454D02*
Y702454D01*
X717374Y697454D02*
X727374D01*
X638904Y743230D02*
Y778230D01*
X618904D02*
X638904D01*
X618904Y743230D02*
Y778230D01*
Y743230D02*
X638904D01*
X623904Y760730D02*
X633904D01*
X628904Y755730D02*
Y765730D01*
X672178Y643662D02*
Y678662D01*
X652178D02*
X672178D01*
X652178Y643662D02*
Y678662D01*
Y643662D02*
X672178D01*
X657178Y661162D02*
X667178D01*
X662178Y656162D02*
Y666162D01*
X651604Y643662D02*
Y678662D01*
X631604D02*
X651604D01*
X631604Y643662D02*
Y678662D01*
Y643662D02*
X651604D01*
X636604Y661162D02*
X646604D01*
X641604Y656162D02*
Y666162D01*
X697324Y682016D02*
Y717016D01*
X677324D02*
X697324D01*
X677324Y682016D02*
Y717016D01*
Y682016D02*
X697324D01*
X682324Y699516D02*
X692324D01*
X687324Y694516D02*
Y704516D01*
X730482Y663568D02*
X759482D01*
Y678568D01*
X730482D02*
X759482D01*
X730482Y663568D02*
Y678568D01*
X744982Y668528D02*
Y673608D01*
X742442Y671068D02*
X747522D01*
X578960Y509550D02*
Y544550D01*
X558960D02*
X578960D01*
X558960Y509550D02*
Y544550D01*
Y509550D02*
X578960D01*
X563960Y527050D02*
X573960D01*
X568960Y522050D02*
Y532050D01*
X443096Y567160D02*
Y596160D01*
Y567160D02*
X458096D01*
Y596160D01*
X443096D02*
X458096D01*
X448056Y581660D02*
X453136D01*
X450596Y579120D02*
Y584200D01*
X411092Y473434D02*
Y502434D01*
Y473434D02*
X426092D01*
Y502434D01*
X411092D02*
X426092D01*
X416052Y487934D02*
X421132D01*
X418592Y485394D02*
Y490474D01*
X426346Y435334D02*
Y464334D01*
X411346D02*
X426346D01*
X411346Y435334D02*
Y464334D01*
Y435334D02*
X426346D01*
X416306Y449834D02*
X421386D01*
X418846Y447294D02*
Y452374D01*
X691160Y814164D02*
X726160D01*
X691160Y794164D02*
Y814164D01*
Y794164D02*
X726160D01*
Y814164D01*
X708660Y799164D02*
Y809164D01*
X703660Y804164D02*
X713660D01*
X603530Y374236D02*
X638530D01*
Y354236D02*
Y374236D01*
X603530Y354236D02*
X638530D01*
X603530D02*
Y374236D01*
X621030Y359236D02*
Y369236D01*
X616030Y364236D02*
X626030D01*
X603784Y404208D02*
X638784D01*
Y384208D02*
Y404208D01*
X603784Y384208D02*
X638784D01*
X603784D02*
Y404208D01*
X621284Y389208D02*
Y399208D01*
X616284Y394208D02*
X626284D01*
X383633Y575081D02*
Y610081D01*
X363633Y575081D02*
X383633D01*
X363633D02*
Y610081D01*
X383633D01*
X368633Y592581D02*
X378633D01*
X373633Y587581D02*
Y597581D01*
X422750Y574320D02*
Y609320D01*
X402750Y574320D02*
X422750D01*
X402750D02*
Y609320D01*
X422750D01*
X407750Y591820D02*
X417750D01*
X412750Y586820D02*
Y596820D01*
X617046Y364490D02*
X627046D01*
X622046Y359490D02*
Y369490D01*
X638546Y354990D02*
Y373990D01*
X605546Y354990D02*
X638546D01*
X605546D02*
Y373990D01*
X638546D01*
X617300Y394208D02*
X627300D01*
X622300Y389208D02*
Y399208D01*
X638800Y384708D02*
Y403708D01*
X605800Y384708D02*
X638800D01*
X605800D02*
Y403708D01*
X638800D01*
X373633Y587581D02*
Y597581D01*
X368633Y592581D02*
X378633D01*
X364133Y576081D02*
X383133D01*
X364133D02*
Y609081D01*
X383133D01*
Y576081D02*
Y609081D01*
X745236Y613998D02*
Y623998D01*
X740236Y618998D02*
X750236D01*
X728736Y584998D02*
X761736D01*
X728736D02*
Y652998D01*
X761736D01*
Y584998D02*
Y652998D01*
M02*
