G04*
G04 #@! TF.GenerationSoftware,Altium Limited,Altium Designer,18.0.12 (696)*
G04*
G04 Layer_Color=16711935*
%FSLAX44Y44*%
%MOMM*%
G71*
G01*
G75*
G04:AMPARAMS|DCode=44|XSize=1.4732mm|YSize=1.1532mm|CornerRadius=0.2441mm|HoleSize=0mm|Usage=FLASHONLY|Rotation=0.000|XOffset=0mm|YOffset=0mm|HoleType=Round|Shape=RoundedRectangle|*
%AMROUNDEDRECTD44*
21,1,1.4732,0.6650,0,0,0.0*
21,1,0.9850,1.1532,0,0,0.0*
1,1,0.4882,0.4925,-0.3325*
1,1,0.4882,-0.4925,-0.3325*
1,1,0.4882,-0.4925,0.3325*
1,1,0.4882,0.4925,0.3325*
%
%ADD44ROUNDEDRECTD44*%
G04:AMPARAMS|DCode=56|XSize=1.4732mm|YSize=1.1532mm|CornerRadius=0.2441mm|HoleSize=0mm|Usage=FLASHONLY|Rotation=270.000|XOffset=0mm|YOffset=0mm|HoleType=Round|Shape=RoundedRectangle|*
%AMROUNDEDRECTD56*
21,1,1.4732,0.6650,0,0,270.0*
21,1,0.9850,1.1532,0,0,270.0*
1,1,0.4882,-0.3325,-0.4925*
1,1,0.4882,-0.3325,0.4925*
1,1,0.4882,0.3325,0.4925*
1,1,0.4882,0.3325,-0.4925*
%
%ADD56ROUNDEDRECTD56*%
%ADD58C,1.7272*%
%ADD59C,0.2032*%
%ADD60R,2.7432X2.7432*%
%ADD61R,3.3032X2.6032*%
%ADD62O,1.6002X1.9812*%
%ADD63R,1.7032X1.7032*%
%ADD64R,1.8542X1.8542*%
%ADD65C,1.8542*%
%ADD66R,1.8542X1.8542*%
%ADD67C,5.2032*%
%ADD68C,1.4732*%
D44*
X373633Y602581D02*
D03*
Y582581D02*
D03*
X412750Y601820D02*
D03*
Y581820D02*
D03*
D56*
X611030Y364236D02*
D03*
X631030D02*
D03*
X611284Y394208D02*
D03*
X631284D02*
D03*
D58*
X564396Y657080D02*
D03*
X551696Y682480D02*
D03*
X538996Y657080D02*
D03*
X526296Y682480D02*
D03*
X513596Y657080D02*
D03*
X500896Y682480D02*
D03*
X418092Y657080D02*
D03*
X405392Y682480D02*
D03*
X392692Y657080D02*
D03*
X379992Y682480D02*
D03*
X367292Y657080D02*
D03*
X354592Y682480D02*
D03*
D59*
X583396Y745980D02*
D03*
X481796D02*
D03*
X437092D02*
D03*
X335492D02*
D03*
D60*
X803148Y715882D02*
D03*
Y665590D02*
D03*
D61*
X700278Y643890D02*
D03*
D62*
X798576Y305308D02*
D03*
X773176D02*
D03*
X747776D02*
D03*
X722376D02*
D03*
X696976D02*
D03*
X671576D02*
D03*
X646176D02*
D03*
X620776D02*
D03*
X595376D02*
D03*
X569976D02*
D03*
X544576D02*
D03*
X519176D02*
D03*
X493776D02*
D03*
X468376D02*
D03*
X442976D02*
D03*
X366776D02*
D03*
X341376D02*
D03*
X417576D02*
D03*
X392176D02*
D03*
Y279908D02*
D03*
X417576D02*
D03*
X341376D02*
D03*
X366776D02*
D03*
X442976D02*
D03*
X468376D02*
D03*
X493776D02*
D03*
X519176D02*
D03*
X544576D02*
D03*
X569976D02*
D03*
X595376D02*
D03*
X620776D02*
D03*
X646176D02*
D03*
X671576D02*
D03*
X696976D02*
D03*
X722376D02*
D03*
X747776D02*
D03*
X773176D02*
D03*
X798576D02*
D03*
X823976D02*
D03*
D63*
Y305308D02*
D03*
D64*
X653796Y795020D02*
D03*
D65*
X628396D02*
D03*
X284226Y415036D02*
D03*
Y440436D02*
D03*
Y567436D02*
D03*
Y465836D02*
D03*
Y491236D02*
D03*
Y542036D02*
D03*
Y516636D02*
D03*
Y389636D02*
D03*
Y364236D02*
D03*
D66*
Y592836D02*
D03*
D67*
X292100Y292100D02*
D03*
X872100Y782100D02*
D03*
X292100D02*
D03*
D68*
X706628Y643890D02*
D03*
X693928D02*
D03*
M02*
