M48
;Layer_Color=9474304
;FILE_FORMAT=2:5
INCH,LZ
;TYPE=PLATED
T1F00S00C0.01200
T2F00S00C0.02992
T3F00S00C0.03000
T4F00S00C0.03500
T5F00S00C0.04000
T6F00S00C0.06299
T7F00S00C0.12598
T8F00S00C0.12795
%
T01
X01644Y01509
X01645Y01537
X01677
X01676Y01509
X01706Y01508
X01707Y01536
X01739
X01738Y01508
X01953Y01514
X01954Y01552
X0195Y01477
X02379Y01436
Y01552
X026Y01512
X02632
X02662Y01511
X02661Y0148
Y01451
Y01422
X0266Y01394
X0263Y01395
X02631Y01423
Y01452
Y01481
X02599
Y01452
Y01423
X02598Y01395
X02692Y01394
X02693Y01422
Y01451
Y0148
X02694Y01511
X02937Y01473
Y01428
X02987
Y01473
X03047
Y01428
X03097
Y01473
X02561Y01292
X02488Y01263
X03262Y02584
X03263Y02612
Y02641
Y0267
X03295
Y02641
Y02612
X03294Y02584
X03324Y02583
X03325Y02611
Y0264
Y02669
X03326Y027
X03296Y02701
X03264
X03263Y02733
X03264Y02761
Y0279
Y02819
X03296
Y0279
Y02761
X03295Y02733
X03325Y02732
X03326Y0276
Y02789
Y02818
X03327Y02849
X03297Y0285
X03265
X03359Y02849
X03358Y02818
Y02789
Y0276
X03357Y02732
X03358Y027
X03357Y02669
Y0264
Y02611
X03356Y02583
X02977Y02546
Y0252
Y02494
X02872Y02527
X02846
Y02554
X02872
X02898
Y02581
X02872
X02846
X02924
X02996Y02641
X02877Y02425
X02638Y02496
Y02522
X02613
Y02497
X02588
Y02522
X0253Y02362
X02498
X02468Y02363
X02467Y02332
Y02303
Y02274
X02466Y02246
X02496Y02245
X02497Y02273
Y02302
Y02331
X02529
Y02302
Y02273
X02528Y02245
X02434Y02246
X02435Y02274
Y02303
Y02332
X02436Y02363
X0264837Y0222063
X02743Y02103
X02739Y02068
X0274Y02026
Y0196
X02747Y01608
X02782
X02822
X02847
X02452Y01677
X02453Y01705
Y01734
Y01763
X02421
Y01734
Y01705
X0242Y01677
X0239Y01678
X02391Y01706
Y01735
Y01764
X02392Y01795
X02422Y01794
X02454
X0236Y01795
X02359Y01764
Y01735
Y01706
X02358Y01678
X02017Y01756
X02018Y01784
Y01813
Y01842
X01986
Y01813
Y01784
X01985Y01756
X01955Y01757
X01956Y01785
Y01814
Y01843
X01957Y01874
X01987Y01873
X02019
X02018Y01906
X02019Y01934
Y01963
Y01992
X01987
Y01963
Y01934
X01986Y01906
X01956Y01907
X01957Y01935
Y01964
Y01993
X01958Y02024
X01988Y02023
X0202
X01926Y02024
X01925Y01993
Y01964
Y01935
X01924Y01907
X01925Y01874
X01924Y01843
Y01814
Y01785
X01923Y01757
X0174Y01625
X01708
X01678Y01626
X01677Y01595
Y01566
X01707Y01565
Y01594
X01739
Y01565
X01645Y01566
Y01595
X01646Y01626
X01773Y02223
X01625Y024
X01977Y02495
X02008
X02039Y02494
X0207Y02495
X02105Y02494
X02204Y02137
X02263Y03056
X02264Y03084
Y03113
X02296
Y03084
X02295Y03056
X02325Y03055
X02326Y03083
Y03112
X02358
Y03083
X02357Y03055
X01858
X01859Y03083
Y03112
X01827
Y03083
X01826Y03055
X01796Y03056
X01797Y03084
Y03113
X01765
Y03084
X01764Y03056
X01408Y03043
X01409Y03071
Y031
X01377
Y03071
X01376Y03043
X01346Y03044
X01347Y03072
Y03101
X01315
Y03072
X01314Y03044
X01171Y02901
X0117Y0287
Y02841
Y02812
X01169Y02784
X01137
X01138Y02812
Y02841
Y0287
X01108Y02871
Y02842
Y02813
X01107Y02785
X01075
X01076Y02813
Y02842
Y02871
X01077Y02902
X01109
X01139Y02901
X01136Y02751
X01106Y02752
X01105Y02721
Y02692
Y02663
X01104Y02635
X01134Y02634
X01135Y02662
Y02691
Y0272
X01167
Y02691
Y02662
X01166Y02634
X01072Y02635
X01073Y02663
Y02692
Y02721
X01074Y02752
X01168Y02751
X01471Y02403
X01409Y03129
X01377
X01347Y0313
X01348Y03161
X01378Y0316
X0141
X01316Y03161
X01315Y0313
X01765Y03142
X01797
X01827Y03141
X01828Y03172
X01798Y03173
X01766
X0186Y03172
X01859Y03141
X02264Y03142
X02296
X02326Y03141
X02327Y03172
X02297Y03173
X02265
X02359Y03172
X02358Y03141
T02
X0164603Y0258693
X0159603Y0268693
X0197203
X0207203
X0217203
X0212203Y0258693
X0202203
X0222203
X0154603
X0144603
X0139603Y0268693
X0149603
T03
X02732Y02535
X02782
T04
X02474Y0313
X02574
T05
X01344Y01102
X01444
X01544
Y01202
X01444
X01344
X01119Y01434
Y01534
X01644Y01202
Y01102
X01744
X01844
X01944
X02044
X02144
X02244
X02344
X02444
X02544
X02644
X02744
X02844
X02944
X03044
Y01202
X02944
X02844
X02744
X02644
X02544
X02444
X02344
X02244
X02144
X02044
X01944
X01844
X01744
X03144
Y01102
X03244
Y01202
X01119Y01634
Y01734
Y01834
Y01934
Y02034
Y02134
Y02234
Y02334
T06
X03162Y0262043
Y0281843
T07
X0115Y0115
X0343347Y0307913
X0115
T08
X0172083Y0293693
X0189683
X0229683
X0132083
M30
