G04*
G04 #@! TF.GenerationSoftware,Altium Limited,Altium Designer,18.0.7 (293)*
G04*
G04 Layer_Color=32768*
%FSLAX25Y25*%
%MOIN*%
G70*
G01*
G75*
%ADD82C,0.00200*%
%ADD84C,0.00394*%
%ADD85C,0.00197*%
D82*
X112900Y188400D02*
G03*
X112900Y188400I-1000J0D01*
G01*
X230400Y115200D02*
G03*
X230400Y115200I-1000J0D01*
G01*
X253400Y313000D02*
G03*
X253400Y313000I-1000J0D01*
G01*
X288300Y165000D02*
X316000D01*
X288300Y128600D02*
Y165000D01*
Y128600D02*
X316000D01*
Y165000D01*
X139600Y156000D02*
Y212800D01*
X159900D01*
Y156000D02*
Y212800D01*
X139600Y156000D02*
X159900D01*
X116900Y138400D02*
Y238400D01*
X106900Y138400D02*
X116900D01*
X106900D02*
Y238400D01*
X116900D01*
X109900Y188400D02*
X113900D01*
X111900Y186400D02*
Y190400D01*
X227400Y115200D02*
X231400D01*
X229400Y113200D02*
Y117200D01*
X128400Y125318D02*
X330200D01*
Y105082D02*
Y125318D01*
X128400Y105082D02*
Y125318D01*
Y105082D02*
X330200D01*
X250400Y313000D02*
X254400D01*
X252400Y311000D02*
Y315000D01*
X262400Y308000D02*
Y318000D01*
X242400D02*
X262400D01*
X242400Y308000D02*
Y318000D01*
Y308000D02*
X262400D01*
D84*
X195031Y188400D02*
X198969D01*
X197000Y186432D02*
Y190368D01*
X275700Y251532D02*
Y255469D01*
X273731Y253500D02*
X277668D01*
X180702Y217710D02*
Y239364D01*
X210229Y217710D02*
Y239364D01*
X180702D02*
X210229D01*
X180702Y217710D02*
X210229D01*
X193497Y228537D02*
X197434D01*
X195465Y226569D02*
Y230505D01*
D85*
X214178Y240000D02*
G03*
X214178Y240000I-1378J0D01*
G01*
X213300Y214700D02*
G03*
X213300Y214700I-500J0D01*
G01*
X294778Y243700D02*
G03*
X294778Y243700I-1378J0D01*
G01*
X294678Y316500D02*
G03*
X294678Y316500I-1378J0D01*
G01*
X280378Y316600D02*
G03*
X280378Y316600I-1378J0D01*
G01*
X148478Y233300D02*
G03*
X148478Y233300I-1378J0D01*
G01*
X163878Y233000D02*
G03*
X163878Y233000I-1378J0D01*
G01*
X246378Y155200D02*
G03*
X246378Y155200I-1378J0D01*
G01*
X246278Y143500D02*
G03*
X246278Y143500I-1378J0D01*
G01*
X245978Y155200D02*
G03*
X245978Y155200I-1378J0D01*
G01*
X245878Y143400D02*
G03*
X245878Y143400I-1378J0D01*
G01*
X148478Y233300D02*
G03*
X148478Y233300I-1378J0D01*
G01*
X163878Y233000D02*
G03*
X163878Y233000I-1378J0D01*
G01*
X289978Y299900D02*
G03*
X289978Y299900I-1378J0D01*
G01*
X262178Y225800D02*
G03*
X262178Y225800I-1378J0D01*
G01*
X279700Y227700D02*
G03*
X279700Y227700I-500J0D01*
G01*
X269978Y231700D02*
G03*
X269978Y231700I-1378J0D01*
G01*
X279700Y235500D02*
G03*
X279700Y235500I-500J0D01*
G01*
X262178Y239900D02*
G03*
X262178Y239900I-1378J0D01*
G01*
X262078Y260300D02*
G03*
X262078Y260300I-1378J0D01*
G01*
X253978D02*
G03*
X253978Y260300I-1378J0D01*
G01*
X271978Y275400D02*
G03*
X271978Y275400I-1378J0D01*
G01*
X293800Y264200D02*
G03*
X293800Y264200I-500J0D01*
G01*
X285777Y287588D02*
G03*
X285777Y287588I-1378J0D01*
G01*
Y274588D02*
G03*
X285777Y274588I-1378J0D01*
G01*
X281890Y150599D02*
G03*
X281890Y150599I-1378J0D01*
G01*
X320100Y151800D02*
G03*
X320100Y151800I-500J0D01*
G01*
X308779Y176712D02*
G03*
X308779Y176712I-1378J0D01*
G01*
X165400Y177100D02*
G03*
X165400Y177100I-500J0D01*
G01*
X165300Y192100D02*
G03*
X165300Y192100I-500J0D01*
G01*
X177900Y229000D02*
G03*
X177900Y229000I-500J0D01*
G01*
X225378Y207500D02*
G03*
X225378Y207500I-1378J0D01*
G01*
X254178Y246000D02*
G03*
X254178Y246000I-1378J0D01*
G01*
X248978Y299500D02*
G03*
X248978Y299500I-1378J0D01*
G01*
X212800Y238032D02*
Y241968D01*
X210831Y240000D02*
X214769D01*
X208863Y246890D02*
X216737D01*
Y233110D02*
Y246890D01*
X208863Y233110D02*
X216737D01*
X208863D02*
Y246890D01*
X207091Y211747D02*
X218509D01*
Y217653D01*
X207091D02*
X218509D01*
X207091Y211747D02*
Y217653D01*
X212800Y213700D02*
Y215700D01*
X211800Y214700D02*
X213800D01*
X174067Y164581D02*
Y212219D01*
X219933Y164581D02*
Y212219D01*
X174067D02*
X219933D01*
X174067Y164581D02*
X219933D01*
X299896Y230314D02*
Y257086D01*
X286904D02*
X299896D01*
X286904Y230314D02*
Y257086D01*
Y230314D02*
X299896D01*
X291431Y243700D02*
X295369D01*
X293400Y241732D02*
Y245669D01*
X291332Y316500D02*
X295269D01*
X293300Y314531D02*
Y318468D01*
X299796Y312760D02*
Y320240D01*
X286804Y312760D02*
X299796D01*
X286804D02*
Y320240D01*
X299796D01*
X277031Y316600D02*
X280968D01*
X279000Y314632D02*
Y318568D01*
X285890Y312663D02*
Y320537D01*
X272110Y312663D02*
X285890D01*
X272110D02*
Y320537D01*
X285890D01*
X150840Y226804D02*
Y239796D01*
X143359D02*
X150840D01*
X143359Y226804D02*
Y239796D01*
Y226804D02*
X150840D01*
X145131Y233300D02*
X149068D01*
X147100Y231331D02*
Y235268D01*
X166240Y226504D02*
Y239496D01*
X158760D02*
X166240D01*
X158760Y226504D02*
Y239496D01*
Y226504D02*
X166240D01*
X160531Y233000D02*
X164469D01*
X162500Y231031D02*
Y234968D01*
X238504Y158940D02*
X251496D01*
X238504Y151460D02*
Y158940D01*
Y151460D02*
X251496D01*
Y158940D01*
X245000Y153232D02*
Y157168D01*
X243032Y155200D02*
X246969D01*
X238404Y147240D02*
X251396D01*
X238404Y139760D02*
Y147240D01*
Y139760D02*
X251396D01*
Y147240D01*
X244900Y141532D02*
Y145468D01*
X242932Y143500D02*
X246868D01*
X242632Y155200D02*
X246568D01*
X244600Y153232D02*
Y157168D01*
X237710Y151263D02*
Y159137D01*
Y151263D02*
X251490D01*
Y159137D01*
X237710D02*
X251490D01*
X242531Y143400D02*
X246468D01*
X244500Y141431D02*
Y145369D01*
X237610Y139463D02*
Y147337D01*
Y139463D02*
X251390D01*
Y147337D01*
X237610D02*
X251390D01*
X147100Y231331D02*
Y235268D01*
X145131Y233300D02*
X149068D01*
X143163Y240189D02*
X151037D01*
X143163Y226410D02*
Y240189D01*
Y226410D02*
X151037D01*
Y240189D01*
X162500Y231031D02*
Y234968D01*
X160531Y233000D02*
X164469D01*
X158563Y239890D02*
X166437D01*
X158563Y226110D02*
Y239890D01*
Y226110D02*
X166437D01*
Y239890D01*
X264873Y268067D02*
X286527D01*
X264873Y238933D02*
X286527D01*
Y268067D01*
X264873Y238933D02*
Y268067D01*
X275214Y293404D02*
X301986D01*
Y306396D01*
X275214D02*
X301986D01*
X275214Y293404D02*
Y306396D01*
X288600Y297932D02*
Y301869D01*
X286631Y299900D02*
X290568D01*
X260800Y223832D02*
Y227768D01*
X258832Y225800D02*
X262769D01*
X256863Y232690D02*
X264737D01*
Y218910D02*
Y232690D01*
X256863Y218910D02*
X264737D01*
X256863D02*
Y232690D01*
X278200Y227700D02*
X280200D01*
X279200Y226700D02*
Y228700D01*
X284909Y224747D02*
Y230653D01*
X273491Y224747D02*
X284909D01*
X273491D02*
Y230653D01*
X284909D01*
X268600Y229731D02*
Y233668D01*
X266632Y231700D02*
X270568D01*
X264663Y224810D02*
X272537D01*
X264663D02*
Y238590D01*
X272537D01*
Y224810D02*
Y238590D01*
X278200Y235500D02*
X280200D01*
X279200Y234500D02*
Y236500D01*
X284909Y232547D02*
Y238453D01*
X273491Y232547D02*
X284909D01*
X273491D02*
Y238453D01*
X284909D01*
X260800Y237931D02*
Y241868D01*
X258832Y239900D02*
X262769D01*
X256863Y246790D02*
X264737D01*
Y233010D02*
Y246790D01*
X256863Y233010D02*
X264737D01*
X256863D02*
Y246790D01*
X260700Y258331D02*
Y262268D01*
X258732Y260300D02*
X262668D01*
X256763Y253410D02*
X264637D01*
X256763D02*
Y267190D01*
X264637D01*
Y253410D02*
Y267190D01*
X252600Y258331D02*
Y262268D01*
X250631Y260300D02*
X254569D01*
X248663Y253410D02*
X256537D01*
X248663D02*
Y267190D01*
X256537D01*
Y253410D02*
Y267190D01*
X270600Y273431D02*
Y277368D01*
X268632Y275400D02*
X272568D01*
X266663Y268510D02*
X274537D01*
X266663D02*
Y282290D01*
X274537D01*
Y268510D02*
Y282290D01*
X292300Y264200D02*
X294300D01*
X293300Y263200D02*
Y265200D01*
X287591Y261247D02*
Y267153D01*
X299009D01*
Y261247D02*
Y267153D01*
X287591Y261247D02*
X299009D01*
X282431Y287588D02*
X286368D01*
X284399Y285620D02*
Y289557D01*
X293651Y281289D02*
Y293887D01*
X275147Y281289D02*
X293651D01*
X275147D02*
Y293887D01*
X293651D01*
X282431Y274588D02*
X286368D01*
X284399Y272620D02*
Y276557D01*
X293651Y268289D02*
Y280888D01*
X275147Y268289D02*
X293651D01*
X275147D02*
Y280888D01*
X293651D01*
X274213Y141347D02*
Y159851D01*
Y141347D02*
X286811D01*
Y159851D01*
X274213D02*
X286811D01*
X278543Y150599D02*
X282480D01*
X280512Y148631D02*
Y152568D01*
X319600Y150800D02*
Y152800D01*
X318600Y151800D02*
X320600D01*
X316647Y146091D02*
X322553D01*
X316647D02*
Y157509D01*
X322553D01*
Y146091D02*
Y157509D01*
X305432Y176712D02*
X309369D01*
X307401Y174743D02*
Y178680D01*
X298149Y170413D02*
Y183011D01*
X316653D01*
Y170413D02*
Y183011D01*
X298149Y170413D02*
X316653D01*
X164900Y176100D02*
Y178100D01*
X163900Y177100D02*
X165900D01*
X161947Y171391D02*
X167853D01*
X161947D02*
Y182809D01*
X167853D01*
Y171391D02*
Y182809D01*
X164800Y191100D02*
Y193100D01*
X163800Y192100D02*
X165800D01*
X161847Y197809D02*
X167753D01*
Y186391D02*
Y197809D01*
X161847Y186391D02*
X167753D01*
X161847D02*
Y197809D01*
X177400Y228000D02*
Y230000D01*
X176400Y229000D02*
X178400D01*
X174447Y234709D02*
X180353D01*
Y223291D02*
Y234709D01*
X174447Y223291D02*
X180353D01*
X174447D02*
Y234709D01*
X224000Y205532D02*
Y209469D01*
X222031Y207500D02*
X225969D01*
X220063Y200610D02*
X227937D01*
X220063D02*
Y214390D01*
X227937D01*
Y200610D02*
Y214390D01*
X252800Y244032D02*
Y247969D01*
X250832Y246000D02*
X254768D01*
X248863Y252890D02*
X256737D01*
Y239110D02*
Y252890D01*
X248863Y239110D02*
X256737D01*
X248863D02*
Y252890D01*
X247600Y297532D02*
Y301468D01*
X245632Y299500D02*
X249569D01*
X243663Y292610D02*
X251537D01*
X243663D02*
Y306390D01*
X251537D01*
Y292610D02*
Y306390D01*
M02*
